<svg width="1442" height="683" viewBox="0 0 1442 683" fill="none" xmlns="http://www.w3.org/2000/svg">
<rect x="1" width="1440" height="682" fill="#E1E2E2"/>
<g opacity="0.5">
<path d="M1291 382C1271.11 382 1252.03 389.902 1237.97 403.967C1223.91 418.032 1216 437.108 1216 456.999L1291 456.999L1291 382Z" stroke="#171D1A" stroke-width="0.5" stroke-dasharray="4 4"/>
<path d="M1216 532C1235.89 532 1254.97 524.098 1269.03 510.033C1283.1 495.968 1291 476.892 1291 457.001L1216 457.001L1216 532Z" stroke="#171D1A" stroke-width="0.5" stroke-dasharray="4 4"/>
<path d="M1141 457C1141 476.891 1148.9 495.967 1162.97 510.032C1177.03 524.097 1196.11 531.999 1216 531.999L1216 457L1141 457Z" stroke="#171D1A" stroke-width="0.5" stroke-dasharray="4 4"/>
<path d="M1216 382C1196.11 382 1177.03 389.902 1162.97 403.967C1148.9 418.032 1141 437.108 1141 456.999L1216 456.999L1216 382Z" stroke="#171D1A" stroke-width="0.5" stroke-dasharray="4 4"/>
</g>
<g opacity="0.5">
<path d="M1441.05 532C1441.05 512.11 1433.15 493.034 1419.08 478.97C1405.02 464.905 1385.94 457.004 1366.05 457.003L1366.05 532L1441.05 532Z" stroke="#171D1A" stroke-width="0.5" stroke-dasharray="4 4"/>
<path d="M1291.05 457C1291.05 476.891 1298.95 495.966 1313.02 510.031C1327.08 524.095 1346.16 531.997 1366.05 531.997L1366.05 457L1291.05 457Z" stroke="#171D1A" stroke-width="0.5" stroke-dasharray="4 4"/>
<path d="M1366.05 382.001C1346.16 382.001 1327.08 389.902 1313.02 403.967C1298.95 418.031 1291.05 437.107 1291.05 456.998L1366.05 456.998L1366.05 382.001Z" stroke="#171D1A" stroke-width="0.5" stroke-dasharray="4 4"/>
<path d="M1441.05 456.997C1441.05 437.106 1433.15 418.031 1419.08 403.966C1405.02 389.902 1385.94 382 1366.05 382L1366.05 456.997L1441.05 456.997Z" stroke="#171D1A" stroke-width="0.5" stroke-dasharray="4 4"/>
</g>
<g opacity="0.5">
<path d="M1291.05 682C1310.94 682 1330.02 674.098 1344.08 660.033C1358.15 645.968 1366.05 626.892 1366.05 607.001L1291.05 607.001L1291.05 682Z" stroke="#171D1A" stroke-width="0.5" stroke-dasharray="4 4"/>
<path d="M1366.05 532C1346.16 532 1327.08 539.902 1313.02 553.967C1298.96 568.032 1291.05 587.108 1291.05 606.999L1366.05 606.999L1366.05 532Z" stroke="#171D1A" stroke-width="0.5" stroke-dasharray="4 4"/>
<path d="M1441.05 607C1441.05 587.109 1433.15 568.033 1419.08 553.968C1405.02 539.903 1385.94 532.001 1366.05 532.001L1366.05 607L1441.05 607Z" stroke="#171D1A" stroke-width="0.5" stroke-dasharray="4 4"/>
<path d="M1366.05 682C1385.94 682 1405.02 674.098 1419.08 660.033C1433.15 645.968 1441.05 626.892 1441.05 607.001L1366.05 607.001L1366.05 682Z" stroke="#171D1A" stroke-width="0.5" stroke-dasharray="4 4"/>
</g>
<g opacity="0.5">
<path d="M1141.05 532C1141.05 551.891 1148.95 570.966 1163.02 585.031C1177.08 599.095 1196.16 606.997 1216.05 606.997L1216.05 532L1141.05 532Z" stroke="#171D1A" stroke-width="0.5" stroke-dasharray="4 4"/>
<path d="M1291.05 607C1291.05 587.11 1283.15 568.034 1269.08 553.97C1255.02 539.905 1235.94 532.004 1216.05 532.003L1216.05 607L1291.05 607Z" stroke="#171D1A" stroke-width="0.5" stroke-dasharray="4 4"/>
<path d="M1216.05 682C1235.94 682 1255.02 674.098 1269.08 660.034C1283.15 645.969 1291.05 626.893 1291.05 607.003L1216.05 607.003L1216.05 682Z" stroke="#171D1A" stroke-width="0.5" stroke-dasharray="4 4"/>
<path d="M1141.05 607.004C1141.05 626.894 1148.95 645.97 1163.02 660.034C1177.08 674.099 1196.16 682 1216.05 682L1216.05 607.004L1141.05 607.004Z" stroke="#171D1A" stroke-width="0.5" stroke-dasharray="4 4"/>
</g>
<g opacity="0.5">
<path d="M151 682C151 642.218 135.197 604.065 107.066 575.935C78.9358 547.804 40.7827 532.001 1.00002 532L1.00001 682L151 682Z" stroke="#171D1A" stroke-width="0.5" stroke-dasharray="4 4"/>
</g>
</svg>
