<svg width="426" height="779" viewBox="0 0 426 779" fill="none" xmlns="http://www.w3.org/2000/svg">
<path d="M393.353 47.0739L378 31.7031L372.546 37.1509L387.899 52.5217L393.353 47.0739Z" fill="#76E8CD" stroke="#171D1A" stroke-miterlimit="10" stroke-linecap="round"/>
<path d="M386.92 34.6804L375.516 46.0713L378.982 49.5421L390.387 38.1512L386.92 34.6804Z" fill="#5F0FF5" stroke="#171D1A" stroke-miterlimit="10" stroke-linecap="round"/>
<path d="M396.328 44.1025L386.288 54.1315C384.447 55.9701 384.501 59.0363 386.407 60.9453L396.448 50.9163C398.31 49.0568 398.235 46.0115 396.328 44.1025Z" fill="#5F0FF5" stroke="#171D1A" stroke-miterlimit="10" stroke-linecap="round"/>
<path d="M380.975 28.7306L370.934 38.7595C369.093 40.5982 366.027 40.5406 364.12 38.6317L374.161 28.6027C376.023 26.7432 379.046 26.7999 380.975 28.7306Z" fill="#5F0FF5" stroke="#171D1A" stroke-miterlimit="10" stroke-linecap="round"/>
<path d="M406.111 34.3345C412.529 27.9233 413.942 11.159 413.942 11.159C413.942 11.159 396.969 12.7594 390.758 18.9637L378.003 31.7033L393.356 47.074L406.111 34.3345Z" fill="#76E8CD" stroke="#171D1A" stroke-miterlimit="10" stroke-linecap="round"/>
<path d="M393.609 31.462C395.387 33.242 398.271 33.2436 400.051 31.4657C401.831 29.6879 401.833 26.8037 400.055 25.0237C398.277 23.2437 395.393 23.2421 393.613 25.0199C391.833 26.7978 391.831 29.6821 393.609 31.462Z" fill="#5F0FF5" stroke="#171D1A" stroke-miterlimit="10" stroke-linecap="round"/>
<path d="M365.535 49.8386C366.823 48.5674 368.56 47.8534 370.37 47.8522C372.194 47.8511 373.943 48.5745 375.233 49.8634L375.233 49.8632C376.522 51.1527 377.246 52.9023 377.245 54.7271C377.244 56.5519 376.518 58.3024 375.227 59.5936L375.226 59.5932C373.938 60.8642 372.202 61.5781 370.392 61.5793C368.567 61.5804 366.818 60.8566 365.528 59.5671L370.298 54.7976C369.017 56.0278 367.309 56.7172 365.531 56.7182C363.706 56.7192 361.956 55.9953 360.667 54.7057L365.535 49.8378L365.535 49.8386Z" fill="#FF6D29" stroke="#171D1A"/>
<path d="M361.576 65.4997C301.575 147 203.074 76.4977 238.575 65.4989C274.076 54.5001 245.019 105.999 187.076 106C129.133 106 105.574 36.9998 48.5762 65.4995C-32.4237 106.001 73.6504 211.182 70.5761 188.999C65.8549 154.934 -37.399 190.495 16.5758 373.5C42.0593 459.904 194.544 430.4 238.575 512C274.173 577.971 236.464 694.499 143.075 778.499" stroke="#9A9C9B" stroke-width="0.5" stroke-miterlimit="10" stroke-dasharray="6 4"/>
</svg>
