<svg width="32" height="32" viewBox="0 0 32 32" fill="none" xmlns="http://www.w3.org/2000/svg">
<path d="M32.0067 4.91718V27.0028C31.9767 27.1028 31.9333 27.2028 31.92 27.3062C31.8433 28.0029 31.6433 28.6563 31.2933 29.263C30.9666 29.8331 30.5665 30.3332 30.0498 30.7465C29.253 31.3833 28.3663 31.7966 27.3495 31.9133C27.2595 31.9233 27.1762 31.97 27.0895 32H5.00385C4.91718 31.97 4.8305 31.9233 4.74049 31.9167C4.26711 31.8867 3.81373 31.7633 3.37702 31.59C2.5536 31.2633 1.85019 30.7699 1.28347 30.0765C0.620065 29.263 0.193353 28.353 0.0866757 27.3028C0.0800083 27.2295 0.0300031 27.1562 0 27.0862C0.00333368 19.7254 0.00333368 12.3613 0.00333368 5.00052C0.0333368 4.91385 0.0800083 4.82717 0.0866757 4.73716C0.116679 4.26378 0.240025 3.8104 0.413376 3.37368C0.740077 2.55027 1.23346 1.84686 1.92687 1.28013C2.74029 0.616731 3.65038 0.19002 4.70382 0.0866757C4.77716 0.0800083 4.85051 0.0300031 4.92051 0C12.2813 0 19.6454 0 27.0061 0C27.0928 0.0300031 27.1795 0.0766747 27.2695 0.083342C27.7429 0.113345 28.1963 0.236691 28.633 0.410043C29.4564 0.736743 30.1598 1.23013 30.7265 1.92353C31.3899 2.73695 31.8166 3.64705 31.9233 4.69716C31.93 4.7705 31.98 4.84384 32.01 4.91385L32.0067 4.91718ZM12.0246 16.0083C12.1146 14.2215 10.4478 12.638 8.68757 12.6313C6.86071 12.6246 5.31055 14.2448 5.30055 15.975C5.28722 17.8019 6.91405 19.3754 8.67757 19.372C10.4811 19.372 12.1113 17.7518 12.0246 16.005V16.0083ZM18.3386 18.3552C19.5387 18.4453 20.7022 17.2385 20.7122 16.0217C20.7222 14.8015 19.572 13.6281 18.3386 13.6281C17.1418 13.6281 15.975 14.7615 15.965 15.9783C15.955 17.1951 17.0984 18.4386 18.3386 18.3519V18.3552ZM25.6827 14.9816C25.0893 14.9816 24.6592 15.4049 24.6559 15.9917C24.6559 16.5851 25.0793 17.0151 25.666 17.0184C26.2594 17.0184 26.6894 16.5951 26.6928 16.0083C26.6928 15.4149 26.2694 14.9849 25.6827 14.9816Z" fill="#171D1A"/>
</svg>
