<svg width="46" height="32" viewBox="0 0 46 32" fill="none" xmlns="http://www.w3.org/2000/svg">
<path d="M19.0251 3.49007C20.4995 1.95376 22.5523 1.00098 24.8225 1.00098C27.8404 1.00098 30.4735 2.68382 31.8756 5.18203C33.0941 4.63758 34.4429 4.33475 35.8619 4.33475C41.3051 4.33475 45.718 8.78606 45.718 14.2768C45.718 19.7682 41.3051 24.2195 35.8619 24.2195C35.1977 24.2195 34.5484 24.153 33.9205 24.0261C32.6858 26.2286 30.3328 27.7167 27.632 27.7167C26.5015 27.7167 25.4321 27.4556 24.48 26.9912C23.2283 29.9355 20.312 32 16.9131 32C13.3735 32 10.3569 29.7603 9.19896 26.6193C8.69293 26.7268 8.16867 26.7828 7.63074 26.7828C3.41648 26.7828 0 23.3312 0 19.0726C0 16.2188 1.535 13.7271 3.8157 12.394C3.34614 11.3136 3.08499 10.1211 3.08499 8.86747C3.08499 3.97004 7.06089 0 11.9648 0C14.844 0 17.4028 1.36894 19.0251 3.49007Z" fill="#171D1A"/>
<path d="M6.62166 16.5949C6.59301 16.6698 6.63208 16.6854 6.6412 16.6984C6.72716 16.7609 6.81443 16.8059 6.90235 16.856C7.36865 17.1035 7.8089 17.1758 8.26933 17.1758C9.20714 17.1758 9.78936 16.6769 9.78936 15.8739V15.8583C9.78936 15.1159 9.13224 14.8462 8.51551 14.6515L8.4354 14.6255C7.97041 14.4744 7.56923 14.3441 7.56923 14.038V14.0218C7.56923 13.76 7.80369 13.5672 8.16709 13.5672C8.57086 13.5672 9.05019 13.7013 9.35888 13.872C9.35888 13.872 9.4494 13.9306 9.48262 13.8427C9.50085 13.7958 9.65715 13.3751 9.67343 13.3295C9.69102 13.28 9.65976 13.2435 9.62785 13.224C9.27552 13.0097 8.78838 12.8632 8.28431 12.8632L8.19053 12.8638C7.33218 12.8638 6.73302 13.3822 6.73302 14.1253V14.1409C6.73302 14.9244 7.39405 15.1784 8.01339 15.3555L8.11303 15.3861C8.56435 15.5249 8.95315 15.644 8.95315 15.9618V15.9775C8.95315 16.2679 8.70046 16.4841 8.29278 16.4841C8.13452 16.4841 7.6298 16.4809 7.0847 16.1364C7.01893 16.098 6.9805 16.07 6.9297 16.0393C6.903 16.0224 6.83592 15.9931 6.80662 16.0817L6.62166 16.5949Z" fill="#F1F1F1"/>
<path d="M20.3521 16.5949C20.3235 16.6698 20.3625 16.6854 20.3717 16.6984C20.4576 16.7609 20.5449 16.8059 20.6328 16.856C21.0991 17.1035 21.5394 17.1758 21.9998 17.1758C22.9376 17.1758 23.5198 16.6769 23.5198 15.8739V15.8583C23.5198 15.1159 22.8627 14.8462 22.246 14.6515L22.1659 14.6255C21.7009 14.4744 21.2997 14.3441 21.2997 14.038V14.0218C21.2997 13.76 21.5342 13.5672 21.8976 13.5672C22.3013 13.5672 22.7807 13.7013 23.0893 13.872C23.0893 13.872 23.1799 13.9306 23.2131 13.8427C23.2313 13.7958 23.3876 13.3751 23.4039 13.3295C23.4215 13.28 23.3902 13.2435 23.3583 13.224C23.006 13.0097 22.5188 12.8632 22.0148 12.8632L21.921 12.8638C21.0626 12.8638 20.4635 13.3822 20.4635 14.1253V14.1409C20.4635 14.9244 21.1245 15.1784 21.7439 15.3555L21.8435 15.3861C22.2948 15.5249 22.6843 15.644 22.6843 15.9618V15.9775C22.6843 16.2679 22.4309 16.4841 22.0232 16.4841C21.865 16.4841 21.3603 16.4809 20.8152 16.1364C20.7494 16.098 20.7103 16.0713 20.6608 16.0393C20.6439 16.0283 20.5644 15.9977 20.5371 16.0817L20.3521 16.5949Z" fill="#F1F1F1"/>
<path d="M29.7243 15.0214C29.7243 15.4754 29.6396 15.8329 29.4729 16.0856C29.3081 16.3357 29.0587 16.4575 28.7109 16.4575C28.3625 16.4575 28.1144 16.3363 27.9522 16.0856C27.7881 15.8336 27.7047 15.4754 27.7047 15.0214C27.7047 14.5682 27.7881 14.2113 27.9522 13.9612C28.1144 13.7137 28.3625 13.5932 28.7109 13.5932C29.0587 13.5932 29.3081 13.7137 29.4735 13.9612C29.6396 14.2113 29.7243 14.5682 29.7243 15.0214ZM30.5071 14.18C30.4302 13.9202 30.3104 13.6909 30.1508 13.5001C29.9913 13.3086 29.7894 13.1549 29.5497 13.0429C29.3107 12.9316 29.0281 12.8749 28.7109 12.8749C28.3931 12.8749 28.1105 12.9316 27.8714 13.0429C27.6318 13.1549 27.4299 13.3086 27.2697 13.5001C27.1108 13.6916 26.9909 13.9208 26.9134 14.18C26.8373 14.4386 26.7988 14.7212 26.7988 15.0214C26.7988 15.3217 26.8373 15.605 26.9134 15.8629C26.9909 16.1221 27.1101 16.3513 27.2703 16.5428C27.4299 16.7342 27.6324 16.8873 27.8714 16.996C28.1111 17.1048 28.3931 17.1602 28.7109 17.1602C29.0281 17.1602 29.3101 17.1048 29.5497 16.996C29.7887 16.8873 29.9913 16.7342 30.1508 16.5428C30.3104 16.352 30.4302 16.1227 30.5071 15.8629C30.5839 15.6043 30.6223 15.321 30.6223 15.0214C30.6223 14.7219 30.5839 14.4386 30.5071 14.18Z" fill="#F1F1F1"/>
<path d="M36.9346 16.3363C36.9085 16.2601 36.8349 16.2888 36.8349 16.2888C36.721 16.3324 36.5998 16.3728 36.4709 16.393C36.34 16.4132 36.1961 16.4236 36.0417 16.4236C35.6627 16.4236 35.3618 16.3109 35.1462 16.0882C34.93 15.8655 34.8089 15.5053 34.8102 15.0182C34.8115 14.5747 34.9183 14.2412 35.1104 13.9872C35.3012 13.7346 35.5917 13.605 35.9792 13.605C36.3022 13.605 36.5484 13.6421 36.8063 13.7235C36.8063 13.7235 36.8681 13.7502 36.8975 13.6694C36.9658 13.4793 37.0166 13.3432 37.0896 13.1341C37.1104 13.0748 37.0596 13.0494 37.0414 13.0423C36.9398 13.0026 36.7001 12.9381 36.5191 12.9107C36.3497 12.8847 36.1518 12.871 35.9316 12.871C35.6028 12.871 35.3097 12.927 35.059 13.039C34.8089 13.1504 34.5966 13.3041 34.4286 13.4956C34.2605 13.687 34.1329 13.9163 34.0476 14.1755C33.9629 14.434 33.9199 14.718 33.9199 15.0182C33.9199 15.6675 34.0951 16.1924 34.4409 16.5766C34.7874 16.9622 35.3077 17.1582 35.9864 17.1582C36.3875 17.1582 36.7991 17.0768 37.0948 16.9602C37.0948 16.9602 37.1514 16.9329 37.1267 16.8671L36.9346 16.3363Z" fill="#F1F1F1"/>
<path d="M38.305 14.5867C38.3421 14.3347 38.4118 14.125 38.5193 13.9615C38.6814 13.7134 38.9289 13.5773 39.2767 13.5773C39.6244 13.5773 39.8543 13.714 40.0191 13.9615C40.1285 14.125 40.176 14.3438 40.1949 14.5867H38.305ZM40.9406 14.0325C40.8742 13.7818 40.7094 13.5284 40.6013 13.4125C40.4307 13.2289 40.264 13.1006 40.0985 13.0289C39.8823 12.9364 39.6231 12.8752 39.3392 12.8752C39.0083 12.8752 38.7081 12.9306 38.4645 13.0452C38.2203 13.1598 38.0152 13.3161 37.8543 13.5109C37.6935 13.7049 37.5723 13.9361 37.4955 14.1986C37.418 14.4597 37.3789 14.7443 37.3789 15.0446C37.3789 15.35 37.4193 15.6346 37.4994 15.8905C37.5801 16.1484 37.7091 16.3757 37.8836 16.5639C38.0575 16.7534 38.2815 16.9019 38.5499 17.0055C38.8162 17.1084 39.1399 17.1618 39.5118 17.1611C40.277 17.1585 40.6801 16.9879 40.8462 16.8961C40.8755 16.8798 40.9035 16.8511 40.8683 16.7691L40.6951 16.2839C40.669 16.2116 40.5954 16.2383 40.5954 16.2383C40.4059 16.3086 40.1363 16.435 39.5079 16.4337C39.0969 16.433 38.7921 16.3119 38.6013 16.1224C38.4053 15.9283 38.3095 15.6431 38.2926 15.2406L40.9426 15.2432C40.9426 15.2432 41.0122 15.2419 41.0194 15.1742C41.022 15.1455 41.1106 14.6297 40.9406 14.0325Z" fill="#F1F1F1"/>
<path d="M17.0843 14.5867C17.1221 14.3347 17.1911 14.125 17.2985 13.9615C17.4607 13.7134 17.7082 13.5773 18.056 13.5773C18.4037 13.5773 18.6336 13.714 18.799 13.9615C18.9078 14.125 18.9553 14.3438 18.9742 14.5867H17.0843ZM19.7193 14.0325C19.6528 13.7818 19.4887 13.5284 19.3806 13.4125C19.21 13.2289 19.0433 13.1006 18.8778 13.0289C18.6616 12.9364 18.4024 12.8752 18.1185 12.8752C17.7883 12.8752 17.4874 12.9306 17.2438 13.0452C16.9996 13.1598 16.7945 13.3161 16.6336 13.5109C16.4728 13.7049 16.3516 13.9361 16.2748 14.1986C16.1979 14.4597 16.1582 14.7443 16.1582 15.0446C16.1582 15.35 16.1986 15.6346 16.2787 15.8905C16.3594 16.1484 16.4884 16.3757 16.6629 16.5639C16.8368 16.7534 17.0608 16.9019 17.3292 17.0055C17.5955 17.1084 17.9192 17.1618 18.2911 17.1611C19.0563 17.1585 19.4594 16.9879 19.6255 16.8961C19.6548 16.8798 19.6828 16.8511 19.6476 16.7691L19.475 16.2839C19.4483 16.2116 19.3747 16.2383 19.3747 16.2383C19.1852 16.3086 18.9163 16.435 18.2865 16.4337C17.8762 16.433 17.5714 16.3119 17.3806 16.1224C17.1846 15.9283 17.0888 15.6431 17.0719 15.2406L19.7219 15.2432C19.7219 15.2432 19.7915 15.2419 19.7987 15.1742C19.8013 15.1455 19.8899 14.6297 19.7193 14.0325Z" fill="#F1F1F1"/>
<path d="M11.3526 16.3213C11.249 16.2386 11.2347 16.2178 11.1995 16.1644C11.1474 16.083 11.1207 15.9671 11.1207 15.8199C11.1207 15.5867 11.1976 15.4194 11.3571 15.3067C11.3552 15.3073 11.5851 15.1081 12.1256 15.1152C12.5053 15.1204 12.8446 15.1764 12.8446 15.1764V16.3813H12.8452C12.8452 16.3813 12.5085 16.4535 12.1295 16.4763C11.5903 16.5089 11.3506 16.3207 11.3526 16.3213ZM12.4069 14.4594C12.2995 14.4516 12.1601 14.447 11.9934 14.447C11.7661 14.447 11.5466 14.4757 11.3408 14.531C11.1337 14.5864 10.9475 14.673 10.7873 14.7876C10.6264 14.9029 10.4968 15.0501 10.403 15.2246C10.3093 15.3992 10.2617 15.605 10.2617 15.8355C10.2617 16.07 10.3021 16.2738 10.3829 16.4405C10.4636 16.6079 10.5802 16.7473 10.7287 16.8547C10.8759 16.9622 11.0576 17.041 11.2686 17.0885C11.4763 17.1361 11.7121 17.1602 11.97 17.1602C12.2415 17.1602 12.5125 17.138 12.7749 17.0931C13.0348 17.0488 13.3539 16.9843 13.4424 16.9641C13.5304 16.9433 13.628 16.9166 13.628 16.9166C13.6938 16.9003 13.6886 16.83 13.6886 16.83L13.6873 14.4067C13.6873 13.8752 13.5453 13.4812 13.266 13.237C12.9879 12.9934 12.5782 12.8703 12.0488 12.8703C11.8501 12.8703 11.5304 12.8977 11.3389 12.9361C11.3389 12.9361 10.7599 13.0481 10.5216 13.2344C10.5216 13.2344 10.4695 13.267 10.4981 13.3399L10.6857 13.844C10.7091 13.9091 10.7723 13.887 10.7723 13.887C10.7723 13.887 10.7925 13.8791 10.8159 13.8655C11.3259 13.588 11.9706 13.5965 11.9706 13.5965C12.2572 13.5965 12.4773 13.6538 12.6258 13.7678C12.7703 13.8785 12.8439 14.0459 12.8439 14.3988V14.5109C12.616 14.4783 12.4069 14.4594 12.4069 14.4594Z" fill="#F1F1F1"/>
<path d="M33.7807 13.0944C33.8009 13.0345 33.7586 13.0058 33.741 12.9993C33.6961 12.9817 33.4707 12.9342 33.2969 12.9231C32.9641 12.9029 32.7791 12.9589 32.6137 13.0332C32.4496 13.1074 32.2672 13.2273 32.1656 13.3634V13.041C32.1656 12.9961 32.1337 12.9602 32.0894 12.9602H31.4102C31.3659 12.9602 31.334 12.9961 31.334 13.041V16.9935C31.334 17.0377 31.3705 17.0742 31.4147 17.0742H32.1109C32.1552 17.0742 32.191 17.0377 32.191 16.9935V15.0189C32.191 14.7538 32.2203 14.4894 32.279 14.3233C32.3363 14.1592 32.4144 14.0277 32.5108 13.9332C32.6078 13.8394 32.7179 13.7737 32.8384 13.7365C32.9615 13.6988 33.0976 13.6864 33.194 13.6864C33.3327 13.6864 33.4851 13.7222 33.4851 13.7222C33.5359 13.7281 33.5645 13.6968 33.5815 13.6506C33.627 13.5294 33.756 13.1667 33.7807 13.0944Z" fill="#F1F1F1"/>
<path d="M27.2464 11.2628C27.1618 11.2367 27.0849 11.2192 26.9846 11.2003C26.883 11.182 26.7619 11.1729 26.6245 11.1729C26.1452 11.1729 25.7674 11.3084 25.5024 11.5754C25.2386 11.8411 25.0595 12.2455 24.9696 12.7776L24.9371 12.9567H24.3353C24.3353 12.9567 24.2624 12.9541 24.2467 13.0335L24.1484 13.5852C24.1412 13.6373 24.164 13.6705 24.2344 13.6705H24.8199L24.2259 16.9867C24.1797 17.2537 24.1263 17.4731 24.067 17.6399C24.009 17.804 23.9524 17.9271 23.882 18.0169C23.8143 18.1029 23.7505 18.1667 23.6398 18.2039C23.5486 18.2345 23.4431 18.2488 23.3278 18.2488C23.264 18.2488 23.1787 18.2384 23.1155 18.2253C23.053 18.213 23.0198 18.1993 22.9722 18.1791C22.9722 18.1791 22.9039 18.1531 22.8765 18.2214C22.855 18.2781 22.6987 18.7073 22.6798 18.76C22.6616 18.8128 22.6876 18.8538 22.7209 18.8662C22.799 18.8935 22.857 18.9118 22.9631 18.9372C23.1103 18.9717 23.2347 18.9736 23.3513 18.9736C23.5948 18.9736 23.8176 18.9391 24.0019 18.8727C24.1868 18.8056 24.3483 18.689 24.4916 18.5314C24.646 18.3608 24.743 18.1824 24.8355 17.9381C24.9273 17.6972 25.0061 17.3976 25.0686 17.0485L25.6658 13.6705H26.5385C26.5385 13.6705 26.6121 13.6731 26.6271 13.593L26.7261 13.042C26.7326 12.9893 26.7104 12.9567 26.6395 12.9567H25.7922C25.7967 12.9378 25.8352 12.6395 25.9322 12.3588C25.9739 12.2397 26.052 12.1426 26.1178 12.0762C26.1829 12.0111 26.2578 11.9648 26.3399 11.9381C26.4239 11.9108 26.5196 11.8978 26.6245 11.8978C26.7039 11.8978 26.7827 11.9069 26.842 11.9193C26.9241 11.9368 26.956 11.946 26.9775 11.9525C27.0641 11.9785 27.0758 11.9531 27.0927 11.9114L27.2953 11.3553C27.3161 11.2954 27.2647 11.27 27.2464 11.2628Z" fill="#F1F1F1"/>
<path d="M15.4091 16.9941C15.4091 17.0384 15.3772 17.0742 15.3329 17.0742H14.6302C14.5859 17.0742 14.5547 17.0384 14.5547 16.9941V11.3386C14.5547 11.2943 14.5859 11.2585 14.6302 11.2585H15.3329C15.3772 11.2585 15.4091 11.2943 15.4091 11.3386V16.9941Z" fill="#F1F1F1"/>
</svg>
