<svg width="32" height="32" viewBox="0 0 32 32" fill="none" xmlns="http://www.w3.org/2000/svg">
<path d="M0 8.60688C0.381261 8.56703 0.76316 8.59316 1.14506 8.58989C1.76094 8.58467 2.37683 8.58728 2.99335 8.58989C3.09663 8.58989 3.2031 8.57029 3.3338 8.62191C3.3338 8.73363 3.3338 8.85058 3.3338 8.96753C3.3338 11.2425 3.33253 13.5168 3.33508 15.7917C3.33572 16.4267 3.43008 17.0441 3.68574 17.6308C4.27612 18.9833 5.27263 19.8535 6.67908 20.1619C9.11201 20.6957 11.2013 19.0747 11.6948 16.952C11.7917 16.5345 11.8121 16.1144 11.8121 15.6904C11.8127 13.4481 11.8121 11.2065 11.814 8.96426C11.814 8.84731 11.784 8.72579 11.8503 8.601H15.1166C15.1943 8.67744 15.1631 8.76956 15.1631 8.85254C15.165 11.2359 15.1873 13.62 15.1593 16.0034C15.1134 19.9345 12.3158 22.985 8.89078 23.5848C8.71226 23.6161 8.51271 23.571 8.35204 23.6991H6.63063C6.6217 23.6475 6.58472 23.6377 6.5401 23.6292C6.32141 23.5887 6.09954 23.5593 5.88532 23.5011C2.85946 22.6818 0.955703 20.7212 0.179792 17.6106C0.116036 17.3545 0.138351 17.0768 0 16.839V8.60688Z" fill="#171D1A"/>
<path d="M26.9724 15.817C26.973 15.8477 26.9736 15.879 26.9743 15.9097C26.1588 16.6892 25.3823 17.5078 24.6051 18.3258C24.5273 18.399 24.447 18.4695 24.3724 18.5453C22.8544 20.1003 21.3363 21.6552 19.8202 23.2115C19.738 23.2958 19.6697 23.3938 19.6181 23.4571C18.8084 22.6267 18.0312 21.8303 17.226 21.0051C18.8632 19.3274 20.5407 17.6084 22.2251 15.8823C20.5349 14.1503 18.862 12.4359 17.2139 10.7477C18.0166 9.92511 18.7944 9.12803 19.6015 8.3009C19.6474 8.3192 19.7125 8.42243 19.7915 8.50344C21.3255 10.0728 22.8576 11.6441 24.3915 13.2134C24.4731 13.297 24.5407 13.4002 24.6555 13.4447C24.6867 13.4871 24.7129 13.5342 24.7492 13.5714C25.4403 14.2816 26.1321 14.9911 26.8257 15.6987C26.8697 15.7431 26.9239 15.7771 26.973 15.8156L26.9724 15.817Z" fill="#171D1A"/>
<path d="M24.6052 18.3262C25.3824 17.5082 26.159 16.6896 26.9744 15.9102C27.0675 15.9226 27.1185 15.9977 27.1778 16.0585C28.7487 17.667 30.319 19.2762 31.8887 20.886C31.9333 20.9317 31.9869 20.9709 31.9901 20.984C31.1931 21.8007 30.4166 22.5965 29.6394 23.3922C29.5572 23.4269 29.4979 23.3125 29.4182 23.2315C27.8989 21.6779 26.3815 20.1223 24.8634 18.5673C24.7812 18.483 24.6913 18.4066 24.6052 18.3269V18.3262Z" fill="#585D5B"/>
<path d="M26.9748 15.8169C26.925 15.7784 26.8708 15.7444 26.8275 15.7C26.1345 14.9918 25.4421 14.2822 24.7509 13.5727C24.7146 13.5355 24.6885 13.4884 24.6572 13.446C24.6808 13.3689 24.7439 13.3238 24.7956 13.2709C26.385 11.6408 27.9751 10.0113 29.5652 8.38255C29.5951 8.35184 29.627 8.32375 29.6334 8.31787C30.415 9.11822 31.1916 9.91333 32 10.7418C31.9981 10.7718 31.9171 10.8169 31.8591 10.8764C30.3149 12.4607 28.7701 14.0438 27.224 15.6262C27.1507 15.7013 27.0908 15.7993 26.9741 15.8169H26.9748Z" fill="#585D5B"/>
</svg>
