<svg width="20" height="20" viewBox="0 0 20 20" fill="none" xmlns="http://www.w3.org/2000/svg">
<g id="donut_small">
<mask id="mask0_3272_7272" style="mask-type:alpha" maskUnits="userSpaceOnUse" x="0" y="0" width="20" height="20">
<rect id="Bounding box" width="20" height="20" fill="#D9D9D9"/>
</mask>
<g mask="url(#mask0_3272_7272)">
<path id="donut_small_2" d="M12.396 9.25001C12.2432 8.87501 12.0279 8.54862 11.7502 8.27084C11.4724 7.99306 11.146 7.77778 10.771 7.62501V2.04167C12.6877 2.23612 14.3196 3.00695 15.6668 4.35417C17.0141 5.70139 17.7849 7.33334 17.9793 9.25001H12.396ZM9.271 17.9583C7.20155 17.75 5.47586 16.8889 4.09391 15.375C2.71197 13.8611 2.021 12.0695 2.021 10C2.021 7.93056 2.71197 6.13542 4.09391 4.61459C5.47586 3.09376 7.20155 2.23612 9.271 2.04167V7.62501C8.75711 7.81945 8.33697 8.12848 8.01058 8.55209C7.68419 8.9757 7.521 9.45834 7.521 10C7.521 10.5417 7.68419 11.0278 8.01058 11.4583C8.33697 11.8889 8.75711 12.1945 9.271 12.375V17.9583ZM10.771 17.9583V12.375C11.146 12.2222 11.4759 12.0069 11.7606 11.7292C12.0453 11.4514 12.2571 11.125 12.396 10.75H17.9793C17.7849 12.6667 17.0141 14.2986 15.6668 15.6458C14.3196 16.9931 12.6877 17.7639 10.771 17.9583Z" fill="#7F3FF7"/>
</g>
</g>
</svg>
