<svg width="16" height="12" viewBox="0 0 16 12" fill="none" xmlns="http://www.w3.org/2000/svg">
<path d="M0.5 12V10.5H2.04167C1.41667 9.94444 0.920139 9.28007 0.552083 8.50688C0.184028 7.73354 0 6.89792 0 6C0 4.60389 0.423611 3.37292 1.27083 2.30708C2.11806 1.24125 3.19444 0.541667 4.5 0.208333V1.77083C3.625 2.09028 2.90625 2.62847 2.34375 3.38542C1.78125 4.14236 1.5 5.01389 1.5 6C1.5 6.67236 1.63542 7.29187 1.90625 7.85854C2.17708 8.42507 2.54167 8.90972 3 9.3125V8H4.5V12H0.5ZM9.25 12C8.625 12 8.09375 11.7812 7.65625 11.3438C7.21875 10.9062 7 10.375 7 9.75C7 9.125 7.21875 8.59375 7.65625 8.15625C8.09375 7.71875 8.625 7.5 9.25 7.5C9.44444 7.06944 9.75278 6.71181 10.175 6.42708C10.5972 6.14236 11.073 6 11.6023 6C12.2702 6 12.8472 6.21528 13.3333 6.64583C13.8194 7.07639 14.1042 7.61111 14.1875 8.25C14.6875 8.26389 15.1146 8.45486 15.4688 8.82292C15.8229 9.19097 16 9.62764 16 10.1329C16 10.6506 15.8188 11.0911 15.4563 11.4546C15.0938 11.8182 14.65 12 14.125 12H9.25ZM10.3958 5C10.2847 4.54167 10.1104 4.11708 9.87292 3.72625C9.63542 3.33528 9.34444 2.98903 9 2.6875V4H7.5V0H11.5V1.5H9.95833C10.4583 1.94444 10.8785 2.46181 11.2188 3.05208C11.559 3.64236 11.7917 4.29167 11.9167 5H10.3958Z" fill="#7F3FF7"/>
</svg>
