<svg width="20" height="21" viewBox="0 0 20 21" fill="none" xmlns="http://www.w3.org/2000/svg">
<path id="ar_on_you" d="M10 3.22727C12.0303 3.22727 13.75 3.93182 15.1591 5.34091C16.5682 6.75 17.2727 8.4697 17.2727 10.5C17.2727 12.5303 16.5682 14.25 15.1591 15.6591C13.75 17.0682 12.0303 17.7727 10 17.7727C7.9697 17.7727 6.25 17.0682 4.84091 15.6591C3.43182 14.25 2.72727 12.5303 2.72727 10.5C2.72727 8.4697 3.43182 6.75 4.84091 5.34091C6.25 3.93182 7.9697 3.22727 10 3.22727ZM10 13.6818C10.7273 13.6818 11.3788 13.4735 11.9545 13.0568C12.5303 12.6402 12.9394 12.0909 13.1818 11.4091H6.81818C7.06061 12.0909 7.4697 12.6402 8.04545 13.0568C8.62121 13.4735 9.27273 13.6818 10 13.6818ZM6.81818 8.68182C6.81818 8.93939 6.9053 9.1553 7.07955 9.32955C7.25379 9.50379 7.4697 9.59091 7.72727 9.59091C7.98485 9.59091 8.20076 9.50379 8.375 9.32955C8.54924 9.1553 8.63636 8.93939 8.63636 8.68182C8.63636 8.42424 8.54924 8.20833 8.375 8.03409C8.20076 7.85985 7.98485 7.77273 7.72727 7.77273C7.4697 7.77273 7.25379 7.85985 7.07955 8.03409C6.9053 8.20833 6.81818 8.42424 6.81818 8.68182ZM11.3636 8.68182C11.3636 8.93939 11.4508 9.1553 11.625 9.32955C11.7992 9.50379 12.0152 9.59091 12.2727 9.59091C12.5303 9.59091 12.7462 9.50379 12.9205 9.32955C13.0947 9.1553 13.1818 8.93939 13.1818 8.68182C13.1818 8.42424 13.0947 8.20833 12.9205 8.03409C12.7462 7.85985 12.5303 7.77273 12.2727 7.77273C12.0152 7.77273 11.7992 7.85985 11.625 8.03409C11.4508 8.20833 11.3636 8.42424 11.3636 8.68182ZM0 5.04545V3.22727C0 2.4697 0.265152 1.82576 0.795455 1.29545C1.32576 0.765152 1.9697 0.5 2.72727 0.5H4.54545V2.31818H2.72727C2.4697 2.31818 2.25379 2.4053 2.07955 2.57955C1.9053 2.75379 1.81818 2.9697 1.81818 3.22727V5.04545H0ZM2.72727 20.5C1.9697 20.5 1.32576 20.2348 0.795455 19.7045C0.265152 19.1742 0 18.5303 0 17.7727V15.9545H1.81818V17.7727C1.81818 18.0303 1.9053 18.2462 2.07955 18.4205C2.25379 18.5947 2.4697 18.6818 2.72727 18.6818H4.54545V20.5H2.72727ZM15.4545 20.5V18.6818H17.2727C17.5303 18.6818 17.7462 18.5947 17.9205 18.4205C18.0947 18.2462 18.1818 18.0303 18.1818 17.7727V15.9545H20V17.7727C20 18.5303 19.7348 19.1742 19.2045 19.7045C18.6742 20.2348 18.0303 20.5 17.2727 20.5H15.4545ZM18.1818 5.04545V3.22727C18.1818 2.9697 18.0947 2.75379 17.9205 2.57955C17.7462 2.4053 17.5303 2.31818 17.2727 2.31818H15.4545V0.5H17.2727C18.0303 0.5 18.6742 0.765152 19.2045 1.29545C19.7348 1.82576 20 2.4697 20 3.22727V5.04545H18.1818Z" fill="#7F3FF7"/>
</svg>
