<svg width="21" height="21" viewBox="0 0 21 21" fill="none" xmlns="http://www.w3.org/2000/svg">
<path id="category" d="M4.3512 9.5L10.1407 0.5L15.9302 9.5H4.3512ZM15.9302 20.5C14.6144 20.5 13.4959 20.0625 12.5749 19.1875C11.6538 18.3125 11.1933 17.25 11.1933 16C11.1933 14.75 11.6538 13.6875 12.5749 12.8125C13.4959 11.9375 14.6144 11.5 15.9302 11.5C17.2459 11.5 18.3644 11.9375 19.2854 12.8125C20.2065 13.6875 20.667 14.75 20.667 16C20.667 17.25 20.2065 18.3125 19.2854 19.1875C18.3644 20.0625 17.2459 20.5 15.9302 20.5ZM0.666992 20V12H9.08805V20H0.666992Z" fill="#7F3FF7"/>
</svg>
