<svg width="123" height="27" viewBox="0 0 123 27" fill="none" xmlns="http://www.w3.org/2000/svg">
<path d="M66.4054 18.0422C65.829 18.0422 65.3616 18.5066 65.3616 19.0777C65.3616 19.6488 65.829 20.1128 66.4054 20.1128C66.9819 20.1128 67.4508 19.6488 67.4508 19.0777C67.4508 18.5066 66.9819 18.0422 66.4054 18.0422ZM66.4054 19.8883C65.9547 19.8883 65.5879 19.525 65.5879 19.0777C65.5879 18.6304 65.9547 18.2663 66.4054 18.2663C66.8572 18.2663 67.2245 18.6303 67.2245 19.0777C67.2245 19.5251 66.8571 19.8883 66.4054 19.8883ZM22.7514 19.4253H25.2754V9.88887H22.7514V19.4253ZM61.6857 13.5245L57.1177 9.62566V19.4117L59.6534 19.4208V15.3918L64.2016 19.808V9.92164H61.6857V13.5245ZM15.0159 17.1123C13.6503 17.1123 12.5436 16.015 12.5436 14.6624C12.5436 13.3088 13.6503 12.2124 15.0159 12.2124C15.6213 12.2124 16.1759 12.4279 16.6058 12.7852L18.2394 10.9467C17.3742 10.2085 16.2473 9.76214 15.0153 9.76214C12.2847 9.76214 10.0707 11.9556 10.0707 14.6624C10.0707 17.3693 12.2847 19.562 15.0153 19.562C16.2573 19.562 17.3925 19.1102 18.2609 18.3596L16.6273 16.5204C16.1945 16.8884 15.6317 17.1123 15.0159 17.1123ZM45.4797 6.56873H32.9878L30.0794 14.0987L27.1708 6.56873H14.2697L12.9278 9.07236H18.7076L18.7047 19.4321H21.3096L21.3172 9.07236H25.307L30.0796 21.638L34.8523 9.07236H46.8579L45.4797 6.56873ZM40.787 12.1396C40.9176 11.9557 41.3833 11.9557 41.3833 11.9557H43.0046V9.88538H40.3772C39.5189 9.88538 38.2508 10.4024 38.2508 12.1396C38.2508 14.4308 41.1036 15.9284 40.8234 16.8519C40.6909 17.2939 40.1523 17.3134 39.8726 17.3134H38.1395V19.4208H40.9726C42.1845 19.4208 43.3969 18.6819 43.3969 17.2769C43.397 14.5963 40.0836 13.1372 40.787 12.1396ZM34.8894 19.42H37.4137V9.88393H34.8894V19.42ZM43.8046 19.4219H46.3292V9.88538H43.8046V19.4219ZM66.6995 19.0665V19.0636C66.8214 19.015 66.8747 18.9176 66.8747 18.7901C66.8747 18.6245 66.7491 18.4883 66.5523 18.4883H65.9591V19.5798H66.2002V19.1533H66.4433C66.5644 19.1533 66.6087 19.204 66.6264 19.3188C66.6392 19.4061 66.6353 19.5116 66.6645 19.5798H66.9062C66.8631 19.5193 66.8649 19.39 66.86 19.3217C66.8521 19.2116 66.8193 19.0962 66.6995 19.0665ZM66.4653 18.9828H66.2002V18.675H66.4653C66.5734 18.675 66.6317 18.7219 66.6317 18.8261C66.6317 18.9356 66.5733 18.9828 66.4653 18.9828ZM0.996094 19.4569H3.68052L4.35168 17.6829H7.48371L8.15512 19.4569H10.8395L5.91757 5.48647L0.996094 19.4569ZM5.11604 15.1324L5.86241 12.6943L6.60757 15.1324H5.11604ZM51.7437 9.75178C49.0077 9.75178 46.791 11.9504 46.791 14.6606C46.791 17.3718 49.0078 19.5709 51.7437 19.5709C54.4789 19.5709 56.6967 17.3718 56.6967 14.6606C56.6966 11.9504 54.4789 9.75178 51.7437 9.75178ZM51.7437 17.0987C50.385 17.0987 49.284 16.0081 49.284 14.6606C49.284 13.3143 50.3851 12.2235 51.7437 12.2235C53.1031 12.2235 54.2045 13.3143 54.2045 14.6606C54.2045 16.0081 53.1031 17.0987 51.7437 17.0987ZM70.9574 0C70.8169 0 70.706 0.0714359 70.706 0.159014V26.8413C70.706 26.9295 70.8169 27 70.9574 27C71.0958 27 71.2078 26.9295 71.2078 26.8413V0.159014C71.2077 0.0714359 71.0956 0 70.9574 0ZM97.0149 16.0467L97.0188 15.9367H96.463L96.4521 15.9722L96.2822 16.3363C96.243 16.4954 96.1768 16.6334 95.9249 16.7648L95.7961 16.5788L95.6999 16.6548C95.5207 16.8183 95.4131 17.1853 95.3846 17.3636C94.8337 17.4317 94.4488 18.0175 94.1923 18.4259C94.1006 18.5719 93.9861 18.756 93.9356 18.7784C93.6041 18.9322 93.4088 18.9346 93.2928 18.9357L93.1466 18.9551L92.6251 19.2264L92.3168 19.3485L92.196 19.3568L92.1792 19.3607L92.1109 19.2681C92.2469 19.0524 92.4473 18.5223 92.7139 17.7909C92.8508 17.4161 93.0047 16.9915 93.0488 16.9326L93.0689 16.9039L93.0896 16.8669V16.4211C93.1053 16.162 93.9483 13.8889 94.4831 13.6638L94.5647 13.629L94.546 13.5415C94.5283 13.4638 94.5009 13.2923 94.5009 13.1253C94.5009 13.0225 94.5107 12.9207 94.5405 12.8451C94.6492 12.562 95.1353 12.3085 95.3134 12.2353L95.3797 12.2079V11.4002C95.4927 11.2627 95.5919 11.0115 95.7126 10.6819C95.8855 10.2111 96.0996 9.62445 96.3873 9.41954L96.4497 9.37617L96.4285 9.30389C96.4282 9.30004 96.3717 9.09886 96.3717 8.87106C96.3717 8.67916 96.4119 8.46847 96.5602 8.34379L96.5993 8.3121V5.27264L96.4945 5.00943L96.4325 4.87077V3.91705L91.3228 3.89705L91.3406 4.01968C91.3568 4.12581 91.26 4.30037 91.1953 4.3859L91.1737 4.41361V6.01844L91.371 6.17589C91.6234 6.4314 91.4394 7.11552 91.3475 7.35802L91.3367 7.38524L91.3829 7.47945L91.4035 7.59064L91.4182 7.70183L91.5154 8.30307L91.5528 8.33029C91.6864 8.42498 91.6805 8.46148 91.6707 8.53328C91.6515 8.65555 91.65 8.77794 91.8323 8.94611L91.9278 9.03489L92.0015 8.91636C92.2588 8.50208 92.3461 8.36234 92.3461 8.2438V6.90471C92.3461 6.72534 92.7685 6.52078 92.9044 6.52078H93.0126V6.41417C93.0126 5.73776 93.4058 5.54417 93.7216 5.38769C93.7216 5.38769 93.8906 5.27734 93.9696 5.22651C94.0127 5.22771 95.5722 5.24313 95.7598 5.24446V6.3019C95.4824 6.56307 95.2855 6.83749 95.1166 7.07926C94.954 7.31284 94.8131 7.51498 94.6387 7.64003C94.543 7.83289 94.5136 8.0472 94.5136 8.23982C94.5136 8.49955 94.5608 8.68651 94.5833 8.76517C94.0731 9.2433 93.9519 9.50772 93.9283 9.62084C93.8717 9.6636 93.5177 9.93441 93.5177 9.93441C93.2138 10.394 92.8902 12.0028 92.8765 12.0716C92.3157 12.6507 92.243 13.0859 92.2028 13.3194L92.1792 13.4298C92.1782 13.4245 91.777 13.8787 91.597 14.2302L91.4309 14.8431C91.401 15.0312 91.3739 15.2083 91.2965 15.2632L91.2582 15.2896L91.2513 15.3543L91.1767 15.939C91.1246 16.2263 91.0667 16.5422 91.0667 16.8343C91.0667 16.9283 91.0726 17.0198 91.0859 17.1065C91.1065 17.1465 91.1993 17.2701 91.1993 17.4304C91.1993 17.5117 91.1757 17.6018 91.106 17.6957L91.0417 17.7803L91.1305 17.8461C91.2022 17.8991 91.4024 18.3151 91.4192 18.3958L91.4242 18.5185L91.2975 18.6101L91.2543 18.6424L91.2514 18.6978V19.7211C91.1316 19.8321 91.0029 19.9625 91.0029 20.0337L91.0893 20.2371L91.217 20.3978L91.2769 20.4071H92.53C92.7111 20.5867 93.0461 20.6646 93.0857 20.6723C93.2891 20.6749 93.3685 20.5623 93.4257 20.4805C93.4898 20.3895 93.5405 20.3169 93.7319 20.3169L93.8934 20.3073L93.9175 20.2998L94.0344 20.4728L94.1071 20.4972H95.9976L96.029 20.4464C96.1215 20.2989 96.523 20.1402 96.6055 20.1397L96.717 20.1372L96.7115 20.0277C96.6506 18.9382 96.629 17.7263 96.7007 17.5848L96.8455 17.321C96.8823 17.208 96.9015 17.1506 97.0267 17.1175L97.1445 17.0858L97.0979 16.9733C97.0105 16.7671 97.0081 16.2345 97.0149 16.0467ZM104.121 19.4112C104.121 19.2397 104.029 19.1298 103.949 19.0319L103.821 18.8655L103.763 18.8571H102.978C102.931 18.808 102.741 18.6045 102.741 18.6045L102.672 18.7296C102.403 19.1624 102.198 19.2432 101.915 19.3556L101.286 19.6799L101.02 19.7753C100.794 19.8434 100.513 19.9262 100.354 20.0971C100.221 20.2383 100.198 20.4067 100.181 20.5304C100.163 20.6673 100.153 20.6836 100.12 20.6895L99.7687 20.7265C99.5733 20.7611 99.4185 20.787 99.2299 20.6975L99.1465 20.658L99.0772 20.7622L99.006 20.8658L98.9377 20.8131C98.9662 20.7387 99.0826 20.4374 99.0826 20.4374C99.1302 20.3462 99.2392 20.0757 99.2392 19.8999L99.2337 19.8663C99.3637 19.6896 99.7552 18.9974 99.8313 18.4882L99.8323 17.6176L100.326 16.2321L100.332 14.3684C100.389 14.1361 100.491 14.0344 100.599 13.9267L100.826 13.5998L100.831 13.0081C101.06 12.7574 101.158 12.3959 101.236 12.0677C101.293 11.8279 101.352 11.5801 101.452 11.5093L101.496 11.4789L101.547 9.83996C101.537 9.78672 101.533 9.73672 101.533 9.68938C101.533 9.51483 101.593 9.37726 101.665 9.21234L101.82 8.76517L101.996 7.73423C102.005 7.56678 102.057 7.53486 102.133 7.48643L102.326 7.259C102.351 7.17575 102.358 7.07505 102.358 6.97988C102.358 6.84725 102.345 6.74618 102.336 6.68727L102.434 6.59499C102.668 6.37562 102.746 6.3019 102.826 6.00592C102.849 5.92267 102.855 5.82341 102.855 5.72969C102.855 5.58754 102.842 5.47756 102.834 5.42564C103.135 5.11556 103.275 4.77452 103.371 4.52058L103.523 4.19568L103.537 4.14943V3.90548L103.328 3.91103L103.32 3.91392L103.199 3.73358L103.139 3.72997L98.8904 3.72659L97.5124 3.72997H97.4054L97.4112 3.83634V6.83086C97.2512 6.98084 97.1595 7.11636 97.1595 7.22816L97.2061 7.46981C97.2268 7.53631 97.2465 7.60148 97.2465 7.68833C97.2465 7.77507 97.2268 7.88313 97.1669 8.03768L97.1398 8.10707L97.4677 8.38727L97.5675 8.30945C97.6489 8.17851 97.701 8.18092 97.7875 8.18429C98.093 8.19899 98.248 8.03925 98.4154 7.02216C98.583 6.00977 98.8588 5.64886 98.9349 5.63886L99.1132 5.60212C99.2929 5.55369 99.5945 5.47141 99.7309 5.60742L99.8556 5.78197L99.9322 5.81727H100.759L100.807 5.87051L100.822 5.88316L100.823 5.88955C100.823 5.91099 100.81 5.95195 100.707 6.0223L100.659 6.0547L100.657 6.11265V6.65354C100.188 7.12167 99.4911 8.6735 99.4911 8.83456V9.31221C99.4581 9.61012 99.2745 9.92827 99.1421 10.1608L98.9941 10.4712L98.9913 10.6324L98.9933 10.7529C98.9933 10.9934 98.7753 11.2112 98.773 11.2131L98.7453 11.2412L98.735 11.3688L98.7474 11.5477L98.8686 11.6956L98.9079 11.7346L97.9165 14.3308C97.9023 14.3891 97.7481 15.1524 97.7481 15.9615C97.7481 16.3832 97.7903 16.816 97.9156 17.169L98.0064 17.3412L98.0761 17.537C98.0775 17.5546 98.136 17.8864 98.136 18.2307C98.136 18.4007 98.1222 18.572 98.08 18.7103L97.975 18.9644L97.9091 19.1429C97.9416 19.2452 97.9661 19.3674 97.9661 19.4667C97.9661 19.529 97.9558 19.5805 97.9317 19.6122L97.7775 19.7412L97.7456 19.8394C97.7617 19.8999 97.7874 20.0304 97.7874 20.1531C97.7874 20.2247 97.7785 20.2943 97.754 20.3444L97.5307 20.566L97.3891 20.6642L97.4172 20.7392C97.4416 20.8113 97.4731 20.9431 97.4731 21.0567C97.4731 21.1229 97.4622 21.1833 97.4343 21.2178L97.2914 21.3375L97.2441 21.4193V22.0441L97.2344 22.1366C97.2275 22.1883 97.2181 22.2526 97.2181 22.3226C97.2181 22.4594 97.2521 22.624 97.3965 22.7788L97.4284 22.8132H97.4755C97.7044 22.8132 97.975 22.6983 98.192 22.6054L98.4545 22.5051L98.9342 22.4948L99.7896 22.4764C100.044 22.3951 100.293 22.2272 100.451 22.0607C100.531 22.0684 101.295 22.1502 101.295 22.1502L101.284 22.1628L101.338 22.2754L101.372 22.3226L101.431 22.3285H103.949L103.956 22.1191L104.075 22.0403L104.118 22.008L104.12 21.9536V20.4377L104.051 20.2385L103.954 19.9011C103.954 19.6791 104.012 19.607 104.054 19.5544L104.121 19.4112ZM86.9567 4.52721C87.0284 4.62852 87.1025 4.64333 87.2945 4.64707C87.357 4.7685 87.4831 4.83692 87.6116 4.87366C87.7964 4.92727 87.9206 4.97196 87.956 5.10616V5.10664L88.1665 8.65615L88.1694 8.71482L88.3246 8.7971C88.2789 8.82757 88.1596 8.91178 88.1596 8.91178L88.1665 8.96213L88.2205 15.9916C88.0771 16.169 87.9991 16.4883 87.9991 16.6811L88.1134 17.0764L88.1665 17.2176L88.173 17.3831L88.0051 17.5194L87.9991 17.5749C87.9991 17.5778 88.0001 17.6247 88.0001 17.7021C88.0001 18.1153 87.9878 19.4148 87.8591 19.8086L87.8003 19.8495L87.3923 20.2035L87.0471 20.6675L87.1271 20.743L87.249 20.8524L87.3967 20.9393C87.4723 21.0346 87.5932 20.9371 87.8828 20.6514C88.146 20.5472 89.5916 20.498 89.7594 20.6094L89.8025 20.6371L89.8663 20.6152L90.1099 20.5387C90.165 20.5558 90.2308 20.5549 90.2308 20.5549L90.655 20.6274L90.6559 20.4883L90.5828 19.9687L89.7888 19.4638C89.5187 19.312 89.5129 19.3091 89.4333 18.9775L89.4013 18.8584C89.3469 18.6626 89.3222 18.5547 89.4126 18.4444L89.5579 18.3253L89.6022 18.2518L89.6914 17.0234L89.6571 16.9815C89.603 16.9119 89.4401 16.4457 89.4361 16.3686L89.3311 15.6457C89.2991 15.5323 89.2756 15.4465 89.2756 15.3696C89.2756 15.279 89.3095 15.2013 89.4057 15.1057L89.5957 14.954L89.6022 14.9111V14.2071L89.5629 14.1477L89.5412 13.8741L89.5299 13.6694L89.4887 13.1128L89.4897 13.0758C89.4897 13.0129 89.4822 12.9182 89.4822 12.9182C89.4729 12.8439 89.4631 12.7546 89.4631 12.6633C89.4631 12.5257 89.4871 12.3862 89.574 12.2906L89.7709 12.1349L89.769 12.0671L89.6873 11.61L89.65 11.5506L89.6078 11.3559C89.59 11.2428 89.5627 11.1539 89.5193 11.0862C89.5737 10.7242 89.5939 10.1833 89.5939 9.5859C89.5939 8.85275 89.5665 8.04503 89.5448 7.41247L89.5183 6.41779C89.5183 6.36791 89.535 6.35298 89.5911 6.30973C89.6627 6.25492 89.7697 6.17264 89.7697 5.97158C89.7697 5.7792 89.7359 5.69548 89.6348 5.64247L89.6019 5.43636C89.6019 5.12712 90.0271 4.79572 90.4081 4.69092L90.4866 4.66947V4.28278L90.3929 4.17051L90.2156 3.93464L90.1341 3.95259C89.8483 4.05823 87.4227 4.05582 87.0422 3.94969L86.971 3.93066L86.9188 4.00077L86.7048 4.28507L86.7832 4.36169L86.9567 4.52721ZM107.899 12.7315L107.904 12.6673L107.949 11.735V11.6802L107.905 11.6488C107.801 11.5745 107.778 11.538 107.778 11.4995L107.783 11.4567L107.797 11.3536C107.797 11.2654 107.749 11.1607 107.618 11.0281V10.3003L107.452 10.1699L106.919 8.12815C106.747 7.69038 106.313 6.50982 106.313 6.15638V5.66584L106.218 5.44383C106.137 5.34769 105.989 5.17025 105.722 4.59454L105.69 4.42095C105.649 4.11798 105.572 3.55144 105.124 3.55144L104.845 3.65371C104.735 3.76358 104.721 3.93235 104.721 4.10702L104.722 4.27254C104.722 4.5201 104.697 4.60852 104.583 4.62285C104.537 4.63936 104.293 4.88571 104.293 4.88571L104.157 5.03087L104.142 5.08604V5.7674C104.087 5.84004 103.89 6.10313 103.89 6.10313L103.821 6.23866C103.642 6.55921 103.491 7.06264 103.463 7.16298L103.432 7.18443L103.303 7.2961C103.247 7.36838 103.229 7.44018 103.229 7.50691C103.229 7.57124 103.245 7.63099 103.26 7.68496L103.282 7.90794C103.125 8.0684 103.016 8.29379 102.906 8.53894L102.833 8.70109C102.698 8.9937 102.672 9.32377 102.649 9.61433C102.624 9.96224 102.6 10.2623 102.405 10.376L102.352 10.408V10.4683C102.352 10.9811 102.169 11.3731 102.167 11.3772L102.041 11.578L101.847 11.95L101.831 12.3778L101.825 12.8288C101.785 13.0951 101.856 13.1854 101.976 13.2382L101.988 13.2415L101.989 13.2515C101.989 13.3414 101.974 13.3598 101.869 13.4332L101.823 13.464V14.1808L101.805 14.1943L101.682 14.2985C101.598 14.396 101.57 14.533 101.57 14.6689C101.57 14.8729 101.628 15.0561 101.651 15.1241C101.616 15.2171 101.567 15.4386 101.491 16.0968L101.484 16.1552L101.555 16.2082L101.657 16.2896C101.656 16.3158 101.554 16.3709 101.491 16.4054L101.15 16.679C101.02 16.9021 100.997 17.2633 100.994 17.3616C100.933 17.4288 100.364 18.0695 100.364 18.0695L100.408 18.1406L100.513 18.3617L100.68 18.7784L100.772 18.7267L102.465 18.1289C102.641 18.0798 103.383 18.1041 103.839 18.1338L103.907 18.1381L103.952 18.047L104.112 17.7569C104.166 17.6868 104.212 17.6285 104.212 17.5652L104.202 17.5183L104.192 17.4872L104.091 17.4287L103.884 17.2807C103.809 17.2077 103.719 17.1449 103.62 17.1078V16.2427C103.617 16.2203 103.546 16.0056 103.495 15.8576H103.732C103.842 15.9622 104.072 16.0946 104.478 16.3157C104.873 16.529 105.692 16.973 105.694 17.1308C105.647 18.566 104.652 19.639 104.641 19.6496L104.613 19.6799V19.7227C104.613 20.1749 104.903 20.464 105.137 20.6953C105.303 20.8598 105.446 21.002 105.446 21.1519V21.6416L105.95 23.2785L105.945 24.3475L106.186 24.2439L106.261 24.2912L106.461 24.1947L106.609 24.0628L106.618 24.0079V23.2979L106.776 23.1703L106.784 23.1149V22.5559C106.901 22.4118 106.971 22.1908 107.031 21.9648C107.087 21.758 107.15 21.5243 107.239 21.4596L107.283 21.4284V20.4596C107.504 20.2123 107.658 19.7571 107.79 19.3388C107.877 19.058 107.988 18.7089 108.072 18.6504L108.103 18.6261L108.113 18.5882C108.166 18.3779 108.188 17.4635 108.188 16.5502C108.188 15.6714 108.168 14.7937 108.138 14.5349C108.074 14.3704 107.899 13.0659 107.899 12.7315ZM106.01 15.0374C105.945 15.0423 105.882 15.0423 105.802 15.0374C105.443 14.9254 105.182 14.5983 104.72 14.502C104.34 14.4216 103.954 14.462 103.721 14.502C103.721 14.502 103.719 14.4125 103.887 14.3686C103.963 14.095 103.824 13.1597 103.887 12.8069C104.033 12.656 104.053 11.6984 104.053 11.6984C104.438 11.6722 104.274 11.2699 104.554 11.0734L104.592 9.96392C104.592 9.96392 104.757 10.59 104.993 10.8426C105.188 11.0532 105.447 10.9547 105.678 11.1622C105.958 11.4124 105.835 12.2869 106.01 12.4115C106.068 12.7658 106.01 15.0374 106.01 15.0374ZM96.1832 21.3527L96.0791 21.3497C94.4066 21.2948 90.4908 21.2018 90.2394 21.5368C89.6694 21.9311 89.0153 21.7481 88.537 21.6142C88.3008 21.5489 88.1304 21.5009 88.0053 21.5315L87.8653 21.6128C87.8653 21.6128 87.6026 21.8635 87.5295 21.933C87.1443 21.9906 86.8896 21.9739 86.6229 21.9535C86.6229 21.9535 86.3711 21.94 86.2507 21.935C86.2321 21.6595 86.1653 21.5398 86.0877 21.4764L86.0856 21.4753L86.093 21.4433L86.2188 21.2314L86.236 21.2045L86.264 21.1442V20.0789L86.4245 19.9505L86.4319 19.895V19.1834L86.4814 19.1389C86.5904 19.045 86.5988 19.0095 86.5988 18.824L86.5286 18.5548L86.4422 18.4454C86.4579 18.3956 86.4761 18.3354 86.4761 18.3354C86.5246 18.1586 86.5472 18.1007 86.674 18.0803L86.7619 18.0667L86.7644 17.9794C86.7664 17.9288 86.7781 17.6226 86.7781 17.3636C86.7781 17.2146 86.7741 17.0808 86.7619 17.0185L86.7544 16.9796L86.5924 16.851C86.5924 16.851 86.5974 15.7985 86.5988 15.7055L86.7525 15.5799L86.7644 15.5279C86.7772 15.3198 86.8529 14.075 86.8529 13.0911C86.8529 12.5283 86.8283 12.0517 86.7526 11.9029L86.5464 11.6773L86.4321 11.5874V8.11924L86.5898 7.99167L86.5991 7.93517V7.16648L86.554 7.13407C86.2745 6.9341 86.2637 6.83291 86.2637 6.83146C86.2642 6.73292 86.2765 6.71582 86.3859 6.63896L86.4321 6.60752V4.89065L86.3869 4.85873C86.2058 4.72971 85.7997 4.24941 85.6588 4.0751L85.4271 4.0386C85.3357 4.06004 85.2227 4.08751 85.0018 3.72936L84.9694 3.67805H83.6318C83.6003 3.63227 83.5128 3.50759 83.5128 3.50759L83.451 3.49964H83.1692L83.1373 3.58697L83.064 3.77177L82.9132 3.93994L83.013 4.00475C83.6336 4.44806 83.7092 4.65538 83.7445 4.75404L83.8889 4.9504L83.9399 4.91751C84.2743 4.9051 84.3071 4.97943 84.3071 4.98232C84.3164 5.00027 84.5546 5.44383 84.593 5.89087V5.90304C84.593 6.05964 84.3986 6.56957 84.3229 6.66426L84.2591 6.74702L84.5026 6.94302C84.5103 6.99072 84.5145 7.07348 84.5145 7.17479C84.5145 7.45499 84.4874 7.86313 84.4704 8.06611L84.3692 8.16694L84.1452 8.37017L84.1344 8.42546V9.77058L84.3014 9.90369V12.4102L84.3485 12.4417C84.3927 12.4716 84.5012 12.6062 84.5135 12.7355L84.5145 12.7598C84.5145 12.9098 84.3868 13.0858 84.3474 13.1123L84.3023 13.1447L84.3014 13.2003V14.9832C84.3003 14.937 84.1816 15.0309 84.1816 15.0309L84.1491 15.0567L84.1354 15.1014C84.1333 15.1171 84.0923 15.3623 84.0923 15.7188C84.0923 15.8892 84.1049 16.0902 84.1325 16.3L84.1167 16.3273L83.9872 16.4297L83.9637 16.4953L83.9676 18.7456L84.0136 18.7763C84.1644 18.8824 84.3015 18.9929 84.3015 19.1813L84.3064 19.3146L84.1797 19.4057L84.1373 19.4384L84.1346 19.4928V20.0718C84.1346 20.0245 84.0167 20.1171 84.0167 20.1171L83.9744 20.1482L83.9675 20.2066V21.5551L84.0185 21.5916C84.1044 21.6525 84.1344 21.6784 84.1344 21.7246C84.1344 21.7776 84.0844 21.8152 84.0313 21.8482L83.9811 21.8794L83.9675 21.948V22.6564C83.9095 22.7051 83.5826 22.9748 83.5826 22.9748L83.3925 23.1366L82.9423 23.3693L82.9068 23.3897L82.8878 23.4442L82.8137 23.6312L82.6786 23.7821L82.7641 23.8639L82.959 24.0743L83.0494 24.0466C83.2625 23.9156 84.0639 23.9867 84.5176 24.0606L84.6051 24.0753L84.634 23.9925C84.7041 23.8055 85.3081 23.3789 85.673 23.1531L86.2395 23.1703C86.3011 23.1775 86.623 23.2779 86.6899 23.3869L86.7214 23.4375H86.7813C88.0923 23.4356 90.5798 23.4381 90.9559 23.4687L90.9628 23.4799C91.0286 23.5866 91.1076 23.6843 91.3526 23.7048H92.9437C93.092 23.8713 93.2039 23.8918 93.3089 23.878C93.3591 23.8716 93.3867 23.8689 93.4753 24.011L93.5073 24.0627H94.1074L94.0897 24.0802L94.1389 24.1869L94.1702 24.2351L94.2331 24.241H96.5871L96.1786 23.4795L96.1832 21.3527ZM121.451 2.89068C120.875 2.89068 120.407 3.3552 120.407 3.92705C120.407 4.49781 120.875 4.96148 121.451 4.96148C122.029 4.96148 122.496 4.49781 122.496 3.92705C122.496 3.3552 122.029 2.89068 121.451 2.89068ZM121.451 4.73706C121 4.73706 120.633 4.37361 120.633 3.92693C120.633 3.47928 121 3.11535 121.451 3.11535C121.903 3.11535 122.27 3.47928 122.27 3.92693C122.27 4.37361 121.903 4.73706 121.451 4.73706ZM121.415 9.34943L121.386 9.29847L121.305 9.04875L121.164 8.70374L121.202 8.78842L121.251 7.03975L121.204 7.00638C121.117 6.94603 121.103 6.91073 121.033 6.70871L120.573 5.61934L120.296 5.34288C120.112 5.18832 119.882 4.99678 119.735 4.76211L119.704 4.71176H118.93C118.897 4.66526 118.81 4.54058 118.81 4.54058L118.748 4.53287H118.096C118.064 4.48685 117.977 4.36217 117.977 4.36217L117.915 4.35458H117.424L117.388 4.31121L117.225 4.09654L117.165 4.08702H116.657C116.457 3.88055 116.162 3.75791 115.916 3.66516C115.754 3.6048 115.535 3.52156 115.523 3.4588L115.505 3.37255H114.933C114.9 3.32737 114.811 3.20124 114.811 3.20124L114.751 3.19414H113.736L113.875 3.36821C113.925 3.42928 114.981 4.42529 115.351 4.7744V5.71066C115.347 5.66536 115.232 5.75607 115.232 5.75607L115.191 5.78848L115.184 5.84473V7.13829L115.066 7.18431L115.025 7.21563L115.018 7.27189V10.586L115.046 10.6439L115.099 10.9103L115.2 11.2581L115.166 11.1744L115.097 12.3625L115.259 12.4939C115.238 12.5996 115.226 12.7546 115.226 12.954C115.226 13.3301 115.254 13.7827 115.266 13.9729L115.372 14.2301L115.432 14.3683V14.859C115.432 14.9684 115.807 16.1666 116.18 16.5784C116.173 16.6461 115.875 19.5803 115.875 19.5803C115.884 19.6344 116.216 20.3933 116.216 20.3933L116.408 20.8694C116.446 20.962 116.532 20.9659 116.57 20.9677L116.574 21.0018C116.564 21.065 116.366 21.1771 115.983 21.3319L115.799 21.4078L115.837 21.5043C115.838 21.5091 116.03 22.0202 116.03 22.3912L116.026 22.4721C115.991 22.8761 115.796 23.2894 115.505 23.5772L115.403 23.6785L115.53 23.7471C115.677 23.8255 116.481 23.728 116.76 23.5976C116.785 23.586 116.839 23.549 116.879 23.4978L117.065 23.582L117.424 23.6882C117.634 23.5772 118 23.4794 118.353 23.3853C118.977 23.2159 119.308 23.1167 119.374 22.952L119.471 22.8643L119.694 22.5587L119.971 22.0318L120.042 21.8323L120.219 20.8947C120.363 20.5457 120.361 20.1726 120.359 19.812C120.357 19.4716 120.356 19.1499 120.482 18.8578C120.647 18.2448 120.463 15.6582 120.457 15.5481L120.421 15.6348L120.478 15.457L120.577 14.9848L120.691 14.1412C120.733 14.1324 120.923 13.9523 121.074 13.6075C121.162 13.4454 121.185 13.2509 121.185 13.0471C121.185 12.9293 121.178 12.8086 121.17 12.6896L121.162 12.2524C121.203 12.18 121.282 12.043 121.282 12.043L121.375 11.8594L121.409 11.8151C121.461 11.672 121.478 11.34 121.478 10.9641C121.478 10.2986 121.425 9.49604 121.416 9.36196L121.415 9.34943ZM119.696 11.919C119.46 12.0436 119.293 13.1187 119.293 13.1187C119.293 13.1187 118.94 13.2874 118.979 13.8758C118.861 14.1703 118.864 17.5183 118.864 17.5183C118.795 17.9146 118.589 18.1226 118.406 18.7443C118.46 19.7588 117.548 20.7577 117.481 20.8299L117.506 12.8104C117.352 12.731 117.172 11.9674 117.172 11.7402C117.172 11.7402 117.085 11.5306 117.039 11.4548C117.037 11.5232 117.032 11.5561 117.024 11.539C116.996 11.411 117.009 11.4081 117.039 11.4548C117.055 10.9881 116.971 8.82902 116.971 8.82902L116.924 8.61616L116.996 7.93517C117.457 7.90373 117.601 7.94661 118.031 7.94661C118.273 7.94661 118.289 8.30367 118.697 8.30367C118.697 8.7453 119.092 8.83071 119.322 9.15151C119.396 9.25884 119.488 10.1114 119.696 10.2218V11.919ZM121.746 3.91548V3.91211C121.868 3.8632 121.921 3.76659 121.921 3.63901C121.921 3.47301 121.795 3.33713 121.598 3.33713H121.004V4.42866H121.247V4.00174H121.488C121.61 4.00174 121.653 4.05329 121.673 4.16762C121.684 4.25411 121.681 4.36024 121.71 4.42866H121.952C121.909 4.36831 121.911 4.23797 121.906 4.17039C121.898 4.05956 121.864 3.945 121.746 3.91548ZM121.511 3.83128H121.247V3.52361H121.511C121.619 3.52361 121.677 3.57011 121.677 3.67479C121.677 3.78502 121.619 3.83128 121.511 3.83128ZM83.0099 19.4137C83.0257 19.327 83.0329 19.2373 83.0329 19.1474C83.0329 18.9287 82.9948 18.7068 82.9618 18.5165C82.9421 18.3985 82.9161 18.2472 82.9161 18.1586L82.927 18.0918C83.1572 17.7997 83.22 17.4579 83.22 17.0919C83.22 16.8727 83.1966 16.6435 83.1748 16.4103L83.1238 15.5553V14.831C83.1493 14.7759 83.1769 14.715 83.1769 14.715L82.9786 14.4497L82.8203 14.2915C82.7236 14.0732 82.6908 13.7939 82.6908 13.5176C82.6908 12.9558 82.8244 12.4044 82.8267 12.3964L82.843 12.3295L82.6391 12.1705V12.1552C82.6391 12.1025 82.597 12.018 82.3401 11.7687L82.2715 11.7015L82.1879 11.7781C82.1569 11.7468 82.1221 11.672 82.1221 11.6241L82.126 11.5992C82.1782 11.5303 82.3277 11.2952 82.3277 11.0893L82.3043 10.9617C82.2778 10.8993 82.2174 10.8186 82.0774 10.791C81.6346 10.7472 81.3709 10.5365 81.3511 10.4779C81.4562 10.3893 82.0726 9.66445 82.3165 9.20535L82.9357 8.05768C83.0668 7.93637 83.106 7.757 83.106 7.54113C83.106 7.37464 83.0825 7.18768 83.0571 6.98783L82.9961 6.25709C82.9961 5.75607 82.6616 4.83523 82.1167 4.47324C81.8879 4.32109 81.6522 4.33916 81.5716 4.34916L81.4891 4.28435C81.3708 4.20496 81.2079 4.0969 81.1617 3.9109L81.1439 3.84212L81.0732 3.83116C80.4477 3.73346 80.1501 3.75936 79.7367 3.79538L78.6211 3.84814L77.7451 3.81971C77.7294 3.81971 76.6117 3.87055 76.324 4.03318H75.4296L75.2822 4.22399L75.2085 4.54094L75.206 4.70549C75.206 4.77344 75.2144 4.81716 75.2762 4.85571L75.3897 4.99762L75.949 5.53068L75.9648 5.54923C75.9049 5.55212 75.8419 5.55501 75.8419 5.55501C75.8419 5.55501 75.9264 5.61248 75.9982 5.66018C76.0079 5.7315 76.0363 5.75607 76.1581 5.75607C76.2053 5.78185 76.2524 5.80378 76.2985 5.75487L76.3024 5.74752L76.4036 5.74186L76.4732 5.81715L76.4713 5.82329L76.4663 5.98929L76.4786 6.20721L76.3633 6.29094L76.3211 6.32238L76.2994 6.39128V10.5405C76.3141 10.5964 76.4958 10.893 76.4958 10.893C76.5056 11.0993 76.5115 11.4095 76.4802 11.4699L76.3157 11.8415L76.2994 13.0387C76.3087 13.0859 76.433 13.3461 76.4344 13.3485L76.4334 13.3666C76.4334 13.4858 76.4663 14.1552 76.4663 14.1601C76.4653 14.1382 76.4241 14.2389 76.3044 14.2496L76.207 14.2584L76.1889 15.7023L76.1531 17.4175L76.2745 18.7723L76.3005 19.0775C76.3799 19.671 76.3612 20.0501 76.3352 20.5759L76.2994 21.8764C76.181 22.4897 75.9792 23.255 75.9222 23.3417C75.8438 23.4162 75.5863 23.5305 75.4419 23.5852L75.2722 23.6479L75.5443 23.8787L75.6453 23.9689L75.748 23.9473L76.0362 23.9595C76.2684 23.982 76.4335 23.9913 76.542 23.9492C77.1184 24.0462 78.0445 24.1483 78.1982 23.8422C78.3076 23.7398 78.3765 23.7176 78.4129 23.7185L78.5581 23.8237C78.6152 23.8869 78.6794 23.9595 78.7791 23.9567C78.8474 23.9542 78.9092 23.9162 78.969 23.8413C79.0377 23.7965 79.5839 23.6918 80.0444 23.6266L80.1082 23.6175L80.1304 23.5584C80.201 23.3701 80.4485 23.1944 80.7113 23.0087L80.884 22.8842C81.2626 22.6061 81.9438 22.2951 81.9505 22.2916L82.0079 22.2649L82.014 22.2045C82.014 22.1968 82.0788 21.4903 82.2423 21.0847C82.3744 20.7479 82.7142 20.2659 82.717 20.262L83.0099 19.4137ZM80.8101 18.0907C80.8332 18.2204 80.5588 19.2237 80.4929 19.2679C80.3841 19.801 80.5155 20.4686 80.2375 20.7148C80.0127 20.8755 79.6729 21.4803 79.3315 21.503L78.959 21.8366C78.734 21.9258 78.3549 21.9643 78.3549 21.9643C78.3549 21.9643 78.7939 21.1842 78.703 21.2925C78.6849 21.5096 78.6599 20.653 78.6599 20.653C78.6599 18.2827 78.6153 19.7228 78.7051 19.1429C78.7223 19.0345 78.7979 19.0013 78.872 18.9204V15.8718C78.7577 15.826 78.6947 15.7258 78.7051 15.6035C78.7144 15.4958 78.7693 15.4209 78.872 15.3805L79.038 14.5767C79.038 14.5767 78.8028 13.6616 79.038 13.3715C79.0763 12.9472 79.0375 11.611 79.0375 11.611L79.5648 12.1489C79.5648 12.1489 79.9303 12.4985 80.2375 12.6623C80.2375 12.6623 80.6711 13.0363 80.4889 13.2097C80.3633 13.298 80.7771 13.5922 80.4928 13.6066C80.4928 13.6066 80.7796 13.9164 80.6186 14.2353C80.839 14.3516 80.536 14.9026 80.536 15.1091C80.536 15.8054 80.8099 15.3167 80.8099 16.1514C80.2467 16.552 81.1007 17.3204 80.7462 17.5696C80.9849 17.7224 80.7227 17.9478 80.8101 18.0907ZM80.6627 6.74618C80.6084 6.77352 80.8277 7.36223 80.8277 7.36223C80.6076 7.47836 80.6618 8.57062 80.6618 8.77553C79.672 8.85203 79.9006 9.66649 79.4544 9.80202C79.4253 9.81105 79.3502 9.66842 79.0379 9.80202V6.51476C79.3075 6.36972 79.1385 6.36635 79.2574 6.05519C79.3154 6.03423 79.4112 5.97953 79.4112 5.97953C79.4371 6.03676 79.4371 6.09952 79.4112 6.15746L80.0377 6.06844H80.1609C80.4114 6.60427 80.6078 6.30865 80.9946 6.51488L80.6627 6.74618ZM114.966 18.4813L114.896 18.4589L114.777 18.42C114.783 18.3782 114.835 17.9316 114.878 17.8592L114.897 17.8266L114.895 17.7802L114.847 17.4516C114.688 16.3216 114.618 15.9127 114.572 15.8314L114.525 15.7442L114.375 15.8138C114.337 15.7914 114.305 15.6064 114.292 15.5368C114.276 15.4394 114.264 15.3684 114.223 15.3255C114.19 15.2355 114.174 14.8065 114.162 14.5184C114.141 13.9575 114.126 13.7018 114.071 13.6109L113.993 13.3083L113.942 13.0624L113.893 12.864L113.894 12.8389C113.894 12.7038 113.805 12.6705 113.541 12.5719L113.541 12.5695L113.525 12.4462C113.514 12.2997 113.497 12.0792 113.279 12.0035C112.831 11.4441 112.605 11.4381 112.316 11.4955C112.316 11.4955 112.246 11.4965 112.179 11.4965C112.21 11.4536 112.244 11.4197 112.244 11.3346C112.244 11.3071 112.242 11.1397 112.24 11.0608C113.161 11.0019 113.822 10.2606 114.194 8.81637L114.198 8.07768C114.229 8.00781 114.269 7.91818 114.269 7.91818L114.334 7.7417L114.366 7.68279C114.371 7.59341 114.391 7.28441 114.391 7.01481C114.391 6.83978 114.382 6.68112 114.357 6.6115L113.508 4.83921L113.434 4.80199L113.215 4.63129C112.973 4.42192 112.641 4.13593 112.272 4.08751L111.968 4.07703L111.904 4.07799C111.345 3.90488 110.68 3.69551 110.609 3.65877L110.586 3.6466L110.55 3.64022H109.73L109.695 3.5942C109.623 3.49108 109.578 3.46157 109.427 3.46157L108.988 3.57842L106.592 3.64022L106.573 3.85103L107.181 3.98222C107.228 4.01896 107.294 4.0698 107.294 4.0698C107.591 4.27917 108.376 4.83319 108.404 5.27132L108.409 5.36311L108.458 5.35757L108.782 5.38407C108.832 5.36757 108.979 5.25385 108.979 5.25385L108.987 5.24096C109.05 5.25482 109.282 5.31168 109.429 5.35902C109.086 5.80618 108.65 6.13337 108.319 6.36755L107.9 6.68811L107.904 6.72365C107.879 6.92254 107.867 7.20948 107.867 7.49631C107.867 7.7841 107.879 8.07009 107.904 8.26801L107.91 8.30801L108.068 8.44449L108.067 8.44823L108.065 8.48786C108.065 8.56821 108.111 8.65507 108.237 8.7836C108.238 8.85203 108.246 9.59518 108.246 9.59518L108.268 9.65095L108.299 9.95862C108.313 10.2212 108.323 10.3111 108.378 10.3615C108.435 10.4861 108.444 10.692 108.444 10.7991L108.442 10.8669L108.441 10.8798L108.471 10.9421L108.512 11.1491L108.605 11.4565L108.569 11.3718V11.9835L108.611 12.0424L108.668 12.1676C108.668 12.1676 108.707 12.2394 108.737 12.2966L108.816 12.9881L108.845 13.0458L108.863 13.1726L108.936 13.4192L108.903 13.3415C108.904 14.2601 108.905 15.6758 108.905 16.6925C108.905 17.3857 108.905 17.8935 108.903 17.9325L108.9 17.9864L109.074 18.1257C109.099 18.3019 109.113 18.4538 109.113 18.5608C109.113 18.6738 109.101 18.7458 109.084 18.7761C108.86 18.9708 108.342 20.7262 108.24 21.0777V21.0846C108.24 21.2453 108.383 21.3397 108.638 21.5091C109.136 21.8417 110.06 22.4585 110.569 23.8366L110.693 24.1721L110.775 23.8255C110.902 23.2918 110.935 22.9559 110.935 22.7344C110.935 22.5913 110.921 22.4972 110.91 22.4257L110.927 22.4158L111.05 22.2994C111.064 22.2333 111.071 22.1486 111.071 22.0518C111.071 21.7801 111.024 21.4081 110.978 21.0464L110.905 20.3774C111.018 20.1311 111.053 19.7756 111.053 19.4111C111.053 19.1729 111.039 18.9305 111.02 18.7086L110.918 18.4847L110.875 18.4168L110.875 18.4056C110.875 18.3302 110.939 18.2576 110.952 18.2465L110.985 18.2168L110.993 18.1691V18.1525C110.993 18.0064 110.921 17.3512 110.806 16.3171C110.703 15.3999 110.564 14.1595 110.564 13.9325L110.565 13.9068L110.663 13.6232L110.724 13.5115C110.879 13.1865 110.925 13.0349 110.925 12.8685L110.914 12.7514C111.171 12.9412 111.534 13.5925 111.727 13.9473L111.849 14.1692L111.851 14.2043C111.851 14.3178 111.802 14.6201 111.764 14.8479L111.676 15.4396L111.773 15.4589C112.141 15.5466 112.595 17.9247 112.595 18.2549V18.2617C112.608 18.3377 112.614 18.5417 112.614 18.7963C112.614 19.3694 112.585 20.1999 112.546 20.4019L112.233 21.3781C112.047 21.9006 111.958 22.1644 111.958 22.3037L111.97 22.3787L111.997 22.4467L112.226 22.4447C112.665 22.4383 112.866 22.435 113.795 23.3361C113.925 23.4651 114.464 23.6355 114.571 23.6682L114.685 23.7031L115.049 21.7855L115.136 21.4082C115.285 21.0532 115.169 20.8692 115.113 20.7791L115.099 20.7787C115.18 20.3887 115.205 20.1131 115.205 19.9127C115.205 19.7067 115.179 19.5787 115.16 19.4828C115.149 19.4306 115.141 19.3942 115.141 19.3625C115.141 19.3153 115.156 19.2783 115.199 19.2165L115.217 19.1896L115.218 19.1517C115.218 18.9804 115.043 18.6041 114.987 18.513L114.966 18.4813ZM112.159 8.66386C112.159 8.66386 112.101 8.95864 112.132 9.14705C112.023 9.40027 111.806 10.1785 111.633 10.3963C111.547 10.506 111.257 10.6994 110.967 10.7526C110.79 10.7857 110.509 10.7526 110.509 10.7526V5.75499C110.576 5.75053 110.638 5.75053 110.718 5.75499C111.116 5.75499 112.132 7.18383 112.132 7.18383C112.406 7.66894 112.299 8.07563 112.299 8.07563V8.43293C112.244 8.45967 112.213 8.69145 112.159 8.66386Z" fill="#171D1A"/>
</svg>
