<svg width="87" height="18" viewBox="0 0 87 18" fill="none" xmlns="http://www.w3.org/2000/svg">
<path d="M8.69282 4.05126C8.64307 3.98548 8.58648 3.95096 8.52358 3.95096C8.47167 3.95096 8.42427 3.97428 8.39381 3.99379C7.91583 4.37024 7.26176 5.96494 6.72575 8.0662L7.2003 8.07163C8.13734 8.08229 9.10501 8.09331 10.0615 8.10813C9.80936 7.1456 9.5711 6.3206 9.35265 5.65464C9.03346 4.68126 8.81772 4.24554 8.69282 4.05126Z" fill="#171D1A"/>
<path fill-rule="evenodd" clip-rule="evenodd" d="M18.7325 9C18.7325 13.9704 14.714 18 9.75689 18C4.79974 18 0.78125 13.9704 0.78125 9C0.78125 4.0294 4.79974 0 9.75689 0C14.714 0 18.7325 4.0294 18.7325 9ZM16.3862 8.79416C16.3862 8.56301 16.2239 8.37036 16.005 8.32645C16.0038 8.32627 16.0025 8.3259 16.0011 8.32554C15.9986 8.32518 15.996 8.32428 15.9935 8.32392L15.9847 8.32301C15.9614 8.31922 15.9378 8.31687 15.9137 8.31651L15.8508 8.31054C14.3474 8.20265 12.8009 8.16018 11.35 8.13108L11.3471 8.12042C10.6409 5.46452 9.75887 2.74916 8.56951 2.74916C7.46125 2.75422 6.46222 4.53831 5.59944 8.05301C4.98989 8.04524 4.43423 8.03675 3.91029 8.02771C3.88055 8.02717 3.85387 8.02699 3.83008 8.02699C3.71834 8.02699 3.66373 8.03169 3.63669 8.0353C3.34165 8.08771 3.12753 8.34578 3.12753 8.64922C3.12753 8.95861 3.35787 9.22392 3.65796 9.26729L3.66409 9.27361H5.31683C5.16345 9.97681 5.029 10.6722 4.91671 11.3422L4.86751 11.6371L4.86697 11.6512C4.86805 11.8787 5.05351 12.0638 5.28024 12.0638C5.42407 12.0638 5.55438 11.9886 5.62882 11.8715L5.64053 11.8809L6.45302 9.27361H10.3666C10.6656 10.4064 10.9758 11.576 11.3857 12.6737C11.6048 13.2607 12.1179 14.6355 12.9755 14.6424H12.9852C14.3125 14.6424 14.8297 12.4927 15.1724 11.0696C15.2459 10.7635 15.3095 10.4991 15.3695 10.3048L15.3935 10.2246H15.3933C15.3991 10.2058 15.4022 10.1859 15.4022 10.1651C15.4022 10.0513 15.3101 9.95892 15.1965 9.95892C15.1084 9.95892 15.0334 10.0144 15.004 10.0925L15.0037 10.0923L14.9748 10.1722C14.8622 10.4848 14.758 10.7805 14.6657 11.0425L14.6587 11.0622C14.0843 12.6936 13.8221 13.4382 13.3084 13.4384L13.2958 13.4382L13.2886 13.4393L13.2758 13.4389C12.6183 13.4389 11.9992 10.7588 11.7661 9.75C11.7258 9.57524 11.6888 9.41476 11.6547 9.27361H15.9063C15.9861 9.27361 16.0613 9.25355 16.1272 9.21886C16.1278 9.21868 16.1281 9.21849 16.1285 9.21831C16.1352 9.21488 16.1415 9.2109 16.148 9.20711C16.1552 9.20295 16.1622 9.1988 16.1691 9.19428C16.1725 9.19211 16.1757 9.18976 16.179 9.18741C16.1892 9.18036 16.1992 9.17295 16.2089 9.165C16.2096 9.16446 16.2102 9.16392 16.2109 9.16337C16.3179 9.07536 16.3862 8.94199 16.3862 8.79416ZM23.7135 11.2518L23.0019 13.0151H20.9348L24.8679 3.80855H26.6934L30.613 13.0151H28.5592L27.8478 11.2518H23.7135ZM25.7672 6.13699L24.4248 9.48849H27.1365L25.7672 6.13699ZM42.2646 9.47512V13.0151H40.3988V9.63669C40.3988 8.61362 39.9021 8.06187 39.0295 8.06187C38.6402 8.06187 38.2107 8.23681 37.8214 8.77518C37.8483 9.00398 37.8751 9.23277 37.8751 9.47512V13.0151H36.0092V9.63669C36.0092 8.61362 35.5126 8.06187 34.6266 8.06187C34.2642 8.06187 33.8615 8.27711 33.4857 8.78873V13.0151H31.6198V6.56783H33.4857V6.95819C33.8884 6.5812 34.3179 6.36596 35.0696 6.36596C35.8884 6.36596 36.6133 6.68892 37.1234 7.28114C37.8081 6.64861 38.4523 6.36596 39.459 6.36596C41.0296 6.36596 42.2646 7.59072 42.2646 9.47512ZM50.4663 9.79807C50.4663 11.6691 49.0435 13.1496 47.2714 13.1496C46.5467 13.1496 45.9426 12.9613 45.4459 12.6381V16.1243H43.5801V6.56783H45.4459V6.94464C45.9426 6.62151 46.5467 6.43319 47.2714 6.43319C49.0435 6.43319 50.4663 7.9003 50.4663 9.79807ZM48.6273 9.79807C48.6273 8.84241 47.9293 8.00801 46.9627 8.00801C46.4125 8.00801 45.862 8.19633 45.4459 8.76181V10.8211C45.862 11.3729 46.4125 11.5614 46.9627 11.5614C47.9293 11.5614 48.6273 10.7404 48.6273 9.79807ZM53.3792 13.0151H51.5132V3.45849H53.3792V13.0151ZM57.1241 13.0151H55.2583V6.56783H57.1241V13.0151ZM55.057 4.29307C55.057 3.66036 55.5535 3.1894 56.1845 3.1894C56.802 3.1894 57.2987 3.66036 57.2987 4.29307C57.2987 4.91223 56.802 5.36982 56.1845 5.36982C55.5535 5.36982 55.057 4.91223 55.057 4.29307ZM63.9029 12.9208C63.1244 13.1631 62.7753 13.217 62.1714 13.217C60.6141 13.217 59.594 12.1133 59.594 10.4442V8.14265H58.2383V6.56783H59.594V4.26614H61.4465V6.56783H63.7688V8.14265H61.4465V10.4308C61.4465 11.1577 61.8895 11.4942 62.574 11.4942C62.9229 11.4942 63.2989 11.4134 63.6614 11.3192L63.9029 12.9208ZM71.3932 13.0151H69.5272V12.5574C69.0038 12.9746 68.413 13.217 67.6883 13.217C65.9968 13.217 64.8693 11.992 64.8693 10.1212V6.56783H66.7352V9.94627C66.7352 10.9692 67.2453 11.5211 68.1178 11.5211C68.5877 11.5211 69.0977 11.2384 69.5272 10.7134V6.56783H71.3932V13.0151ZM79.313 13.0151H77.4472V12.6381C76.9505 12.9613 76.3466 13.1496 75.6217 13.1496C73.8498 13.1496 72.4133 11.6825 72.4133 9.7847C72.4133 7.91368 73.8498 6.43319 75.6217 6.43319C76.3466 6.43319 76.9505 6.62151 77.4472 6.94464V3.45849H79.313V13.0151ZM77.4472 10.8211V8.76181C77.0311 8.20988 76.4806 8.02139 75.9304 8.02139C74.9505 8.02139 74.2658 8.84241 74.2658 9.7847C74.2658 10.7404 74.9505 11.5749 75.9304 11.5749C76.4806 11.5749 77.0311 11.3864 77.4472 10.8211ZM86.8839 10.2692H82.1454C82.293 11.023 82.7897 11.6152 83.8099 11.6152C84.3334 11.6152 84.6959 11.4537 84.8972 11.1307H86.8435C86.4946 12.369 85.2865 13.217 83.7697 13.217C81.7024 13.217 80.3063 11.723 80.3063 9.79807C80.3063 7.80615 81.689 6.36578 83.716 6.36578C85.5549 6.36578 86.9241 7.67151 86.9241 9.66343C86.9241 9.93271 86.9108 10.0807 86.8839 10.2692ZM82.1587 9.16554H85.0717C84.9643 8.35789 84.4811 7.91367 83.7293 7.91367C82.8299 7.91367 82.3334 8.43868 82.1587 9.16554Z" fill="#171D1A"/>
</svg>
