<svg width="105" height="13" viewBox="0 0 105 13" fill="none" xmlns="http://www.w3.org/2000/svg">
<path d="M4.07888 5.93938C4.04072 5.88945 3.99033 5.85021 3.93258 5.82545C3.87483 5.80069 3.81166 5.79125 3.74919 5.79804C3.68672 5.80482 3.62706 5.82761 3.57597 5.8642C3.52489 5.90078 3.4841 5.94993 3.45756 6.00688L0.309251 12.3015C0.28057 12.3589 0.267028 12.4226 0.269912 12.4867C0.272795 12.5508 0.292008 12.6131 0.325725 12.6676C0.359443 12.7222 0.406546 12.7672 0.462563 12.7985C0.51858 12.8297 0.581652 12.8461 0.645789 12.8461H5.02965C5.09986 12.8477 5.16904 12.8289 5.22878 12.792C5.28852 12.7551 5.33625 12.7016 5.36619 12.6381C6.31184 10.684 5.73874 7.7128 4.07888 5.93938Z" fill="#171D1A"/>
<path d="M6.38015 0.201951C5.59568 1.40911 5.13853 2.7995 5.05354 4.23668C4.96856 5.67387 5.25868 7.10846 5.89542 8.39966L8.00892 12.627C8.04017 12.6896 8.08821 12.7421 8.14765 12.7789C8.20709 12.8156 8.27558 12.8351 8.34546 12.8351H12.7285C12.7927 12.8351 12.8557 12.8187 12.9118 12.7874C12.9678 12.7562 13.0149 12.7112 13.0486 12.6566C13.0823 12.602 13.1015 12.5398 13.1044 12.4757C13.1073 12.4116 13.0938 12.3479 13.0651 12.2905C13.0651 12.2905 7.16836 0.494628 7.02017 0.199589C6.99087 0.139534 6.94523 0.0889538 6.8885 0.0536519C6.83177 0.01835 6.76624 -0.000244157 6.69942 2.42092e-06C6.6326 0.000248999 6.56721 0.0193263 6.51074 0.055046C6.45427 0.0907656 6.40901 0.141681 6.38015 0.201951Z" fill="#171D1A"/>
<path d="M57.806 5.25452C57.806 6.81322 58.5291 8.05074 61.3574 8.59707C63.0448 8.95132 63.3983 9.2237 63.3983 9.78617C63.3983 10.3325 63.044 10.6862 61.8555 10.6862C60.419 10.6603 59.0113 10.2794 57.7578 9.57736V12.1162C58.6096 12.534 59.7343 13 61.8234 13C64.7802 13 65.9534 11.6814 65.9534 9.72182L57.806 5.25452ZM65.9534 9.72182C65.9534 7.87381 64.9731 7.00589 62.2092 6.41154C60.6826 6.07402 60.3129 5.73669 60.3129 5.25452C60.3129 4.64442 60.8593 4.3868 61.8716 4.3868C63.093 4.3868 64.2983 4.7564 65.4392 5.27065V2.84403C64.3452 2.34611 63.1537 2.09906 61.952 2.12097C59.2201 2.12097 57.806 3.31007 57.806 5.25452" fill="#171D1A"/>
<path d="M95.7891 2.25928V12.8171H98.0388V4.766L98.987 6.90312L102.169 12.8169H104.997V2.25928H102.747V9.0729L101.896 7.09618L99.3404 2.25928H95.7891Z" fill="#171D1A"/>
<path d="M81.4821 2.25928H79.0234V12.8171H81.4821V2.25928Z" fill="#171D1A"/>
<path d="M76.18 9.72133C76.18 7.87332 75.1997 7.00541 72.4357 6.41105C70.9091 6.07353 70.5395 5.7362 70.5395 5.25403C70.5395 4.64393 71.0858 4.38631 72.0982 4.38631C73.3196 4.38631 74.5248 4.75591 75.6657 5.27017V2.84355C74.5717 2.34562 73.3803 2.09857 72.1785 2.12048C69.4466 2.12048 68.0326 3.30958 68.0326 5.25403C68.0326 6.81273 68.7557 8.05025 71.584 8.59658C73.2714 8.95083 73.6248 9.22321 73.6248 9.78569C73.6248 10.332 73.2706 10.6857 72.0821 10.6857C70.6456 10.6599 69.2379 10.2789 67.9844 9.57687V12.1157C68.8362 12.5335 69.9609 12.9995 72.05 12.9995C75.0068 12.9995 76.18 11.6809 76.18 9.72133Z" fill="#171D1A"/>
<path d="M38.7031 2.25928V12.8171H43.7567L44.5524 10.5342H41.1778V2.25928H38.7031Z" fill="#171D1A"/>
<path d="M28.7227 2.25928V4.54105H31.4545V12.8171H33.9292V4.54105H36.8539V2.25928H28.7227Z" fill="#171D1A"/>
<path d="M25.1201 2.25928H21.877L18.1953 12.8171H21.0069L21.5288 11.039C22.8142 11.4164 24.1811 11.4164 25.4665 11.039L25.9884 12.8171H28.8004L25.1201 2.25928ZM23.4985 9.13509C23.0405 9.13505 22.585 9.06951 22.1456 8.94045L23.4985 4.33302L24.8515 8.94203C24.412 9.07057 23.9564 9.13558 23.4985 9.13509Z" fill="#171D1A"/>
<path d="M52.4559 2.25928H49.2129L45.5312 12.8171H48.3434L48.8653 11.039C50.1508 11.4164 51.5176 11.4164 52.803 11.039L53.325 12.8171H56.1371L52.4559 2.25928ZM50.8344 9.13509C50.3765 9.13505 49.9209 9.06951 49.4815 8.94045L50.8344 4.33302L52.1874 8.94203C51.7479 9.07057 51.2923 9.13558 50.8344 9.13509Z" fill="#171D1A"/>
<path d="M90.3465 2.25928H87.1035L83.4219 12.8171H86.234L86.756 11.039C88.0414 11.4164 89.4082 11.4164 90.6937 11.039L91.2156 12.8171H94.028L90.3465 2.25928ZM88.724 9.13509C88.2661 9.13505 87.8105 9.06951 87.3712 8.94045L88.724 4.33302L90.0771 8.94203C89.6376 9.07057 89.1819 9.13558 88.724 9.13509Z" fill="#171D1A"/>
</svg>
