<svg width="42" height="24" viewBox="0 0 42 24" fill="none" xmlns="http://www.w3.org/2000/svg">
<path fill-rule="evenodd" clip-rule="evenodd" d="M33.2632 0V18.1053H28.9925V0.902256L33.2632 0ZM20.9925 19.7895C22.1955 19.7895 23.1579 20.7519 23.1579 21.8947C23.1579 23.0977 22.1955 24 20.9925 24C19.7895 24 18.8271 23.0376 18.8271 21.8947C18.8872 20.7519 19.8496 19.7895 20.9925 19.7895ZM20.9925 5.11278C24.6617 5.11278 27.609 8.06015 27.609 11.6692C27.609 15.2782 24.6617 18.2256 20.9925 18.2256C17.3233 18.2256 14.3759 15.2782 14.3759 11.6692C14.3759 8.06015 17.3835 5.11278 20.9925 5.11278ZM20.9925 13.8346C22.1955 13.8346 23.1579 12.8722 23.1579 11.7293C23.1579 10.5263 22.1955 9.62406 20.9925 9.62406C19.7895 9.62406 18.8271 10.5865 18.8271 11.7293C18.8872 12.8722 19.8496 13.8346 20.9925 13.8346ZM7.5188 13.8346C8.2406 13.8346 8.84211 13.2331 8.84211 12.5113C8.84211 11.7895 8.2406 11.188 7.5188 11.188H4.27068V13.8346H7.5188ZM4.27068 4.27068V6.91729H6.67669C7.3985 6.91729 8 6.31579 8 5.59398C8 4.87218 7.3985 4.27068 6.67669 4.27068H4.27068ZM11.4887 8.54135C12.5113 9.56391 13.1729 10.9474 13.1729 12.5113C13.1729 15.5789 10.6466 18.1053 7.5188 18.1053H0V0H6.67669C9.80451 0 12.3308 2.52632 12.3308 5.59398C12.3308 6.67669 12.0301 7.69925 11.4887 8.54135ZM41.3233 9.62406H39.1579V12.9925C39.1579 14.015 39.4586 14.7368 40.3609 14.7368C40.9023 14.7368 41.3233 14.6165 41.3233 14.6165V17.7444C41.3233 17.7444 40.4211 18.2857 39.218 18.2857H39.1579C39.0977 18.2857 39.0376 18.2857 38.9774 18.2857H38.9173H38.8571C36.4511 18.1654 34.8271 16.6617 34.8271 14.0752V3.00752L39.0977 2.10526V5.35338H41.2632V9.62406H41.3233Z" fill="#171D1A"/>
</svg>
