<svg width="20" height="21" viewBox="0 0 20 21" fill="none" xmlns="http://www.w3.org/2000/svg">
<path id="contract_edit" d="M6 7.5V5.5H15V7.5H6ZM6 10.5V8.5H15V10.5H6ZM11 20.5V17.425L16.525 11.925C16.675 11.775 16.8417 11.6667 17.025 11.6C17.2083 11.5333 17.3917 11.5 17.575 11.5C17.775 11.5 17.9667 11.5375 18.15 11.6125C18.3333 11.6875 18.5 11.8 18.65 11.95L19.575 12.875C19.7083 13.025 19.8125 13.1917 19.8875 13.375C19.9625 13.5583 20 13.7417 20 13.925C20 14.1083 19.9667 14.2958 19.9 14.4875C19.8333 14.6792 19.725 14.85 19.575 15L14.075 20.5H11ZM17.575 14.9L18.5 13.925L17.575 13L16.625 13.95L17.575 14.9ZM3 20.5C2.16667 20.5 1.45833 20.2083 0.875 19.625C0.291667 19.0417 0 18.3333 0 17.5V14.5H3V0.5H18V9.525C17.6667 9.49167 17.3292 9.50417 16.9875 9.5625C16.6458 9.62083 16.3167 9.725 16 9.875V2.5H5V14.5H11L9 16.5V20.5H3Z" fill="#7F3FF7"/>
</svg>
