<svg width="16" height="21" viewBox="0 0 16 21" fill="none" xmlns="http://www.w3.org/2000/svg">
<path id="directions_run" d="M9.5415 20.5V14.9186L7.57275 13.0581L6.63525 17.1512L0.166504 15.8488L0.541504 13.9884L5.0415 14.9186L6.5415 7.38372L4.854 8.03488V11.1977H2.979V6.82558L6.68213 5.24419C7.229 5.01163 7.63135 4.86047 7.88916 4.7907C8.14697 4.72093 8.38525 4.68605 8.604 4.68605C8.93213 4.68605 9.23682 4.77132 9.51807 4.94186C9.79932 5.1124 10.0259 5.33721 10.1978 5.61628L11.1353 7.10465C11.5415 7.75581 12.0923 8.2907 12.7876 8.7093C13.4829 9.12791 14.2759 9.33721 15.1665 9.33721V11.1977C14.1353 11.1977 13.1704 10.9845 12.272 10.5581C11.3735 10.1318 10.6196 9.56977 10.0103 8.87209L9.44775 11.6628L11.4165 13.5233V20.5H9.5415ZM10.0103 4.22093C9.49463 4.22093 9.05322 4.03876 8.68604 3.67442C8.31885 3.31008 8.13525 2.87209 8.13525 2.36047C8.13525 1.84884 8.31885 1.41085 8.68604 1.04651C9.05322 0.682171 9.49463 0.5 10.0103 0.5C10.5259 0.5 10.9673 0.682171 11.3345 1.04651C11.7017 1.41085 11.8853 1.84884 11.8853 2.36047C11.8853 2.87209 11.7017 3.31008 11.3345 3.67442C10.9673 4.03876 10.5259 4.22093 10.0103 4.22093Z" fill="#7F3FF7"/>
</svg>
