<svg width="22" height="17" viewBox="0 0 22 17" fill="none" xmlns="http://www.w3.org/2000/svg">
<path d="M14 8.5L9 11L9 6L14 8.5Z" stroke="#171D1A"/>
<path d="M1.37387 3.92442C1.5636 2.61984 2.62855 1.6229 3.93902 1.47934C9.25444 0.897011 12.7416 0.798433 18.1564 1.44506C19.4685 1.60175 20.5126 2.62677 20.6776 3.93785C21.0924 7.23341 21.1186 9.73314 20.6882 13.0317C20.5205 14.3172 19.4971 15.3187 18.2117 15.4866C12.8847 16.1824 9.18713 16.1638 3.84262 15.4743C2.57836 15.3112 1.56011 14.3435 1.36887 13.0832C0.866956 9.77556 0.885608 7.28154 1.37387 3.92442Z" stroke="#171D1A"/>
</svg>
