<svg width="69" height="20" viewBox="0 0 69 20" fill="none" xmlns="http://www.w3.org/2000/svg">
<path d="M62.1289 9.41224C61.6903 8.65715 61.0733 8.05181 60.3019 7.59609C59.7255 7.26032 59.1278 7.04722 58.4542 6.9557V4.55644C59.1278 4.27028 59.5458 3.6369 59.5458 2.89798C59.5458 1.89083 58.7386 1.07468 57.7328 1.07468C56.7262 1.07468 55.9049 1.89083 55.9049 2.89798C55.9049 3.6369 56.2988 4.27028 56.9723 4.55644V6.95678C56.4335 7.03469 55.8747 7.20277 55.3644 7.46103C54.3221 6.669 50.9044 4.07066 48.9051 2.55306C48.9525 2.38201 48.989 2.2057 48.989 2.01969C48.989 0.904171 48.0862 0 46.9709 0C45.8556 0 44.9531 0.904171 44.9531 2.01969C44.9531 3.13508 45.8565 4.03952 46.9718 4.03952C47.3523 4.03952 47.7041 3.92818 48.0078 3.74514L48.4297 4.0654L54.2273 8.24496C53.9208 8.52654 53.6353 8.8468 53.407 9.20615C52.9442 9.93874 52.6615 10.7448 52.6615 11.624V11.8075C52.6615 12.4247 52.7787 13.0074 52.9783 13.5547C53.1541 14.0327 53.4112 14.4673 53.7295 14.8602L51.8054 16.7901C51.5265 16.6863 51.2237 16.6649 50.933 16.7287C50.6424 16.7925 50.3763 16.9387 50.1664 17.1497C50.0212 17.2944 49.906 17.4664 49.8277 17.6559C49.7493 17.8454 49.7093 18.0486 49.71 18.2537C49.7102 18.6706 49.8725 19.0624 50.1672 19.3572C50.3117 19.5027 50.4836 19.618 50.6729 19.6965C50.8623 19.775 51.0653 19.8152 51.2703 19.8147C51.4753 19.8152 51.6784 19.775 51.8678 19.6965C52.0572 19.618 52.2292 19.5026 52.3737 19.3572C52.5189 19.2125 52.634 19.0405 52.7124 18.8511C52.7908 18.6617 52.8309 18.4587 52.8304 18.2537C52.8304 18.0923 52.8055 17.9349 52.7586 17.7853L54.7474 15.7951C55.0201 15.9835 55.3145 16.1422 55.6311 16.279C56.2555 16.5491 56.9447 16.7137 57.699 16.7137H57.8372C58.6711 16.7137 59.4577 16.5177 60.1971 16.1168C60.9763 15.6932 61.5862 15.1139 62.0469 14.3743C62.51 13.6327 62.765 12.8133 62.765 11.9118V11.8668C62.765 10.98 62.5599 10.1618 62.1289 9.41224ZM59.6989 13.5871C59.1591 14.1873 58.5387 14.557 57.8372 14.557H57.7216C57.321 14.557 56.9291 14.4462 56.5454 14.2447C56.113 14.0229 55.7843 13.7064 55.5153 13.3057C55.2372 12.9123 55.0863 12.4829 55.0863 12.0276V11.8893C55.0863 11.4416 55.1721 11.0172 55.3885 10.6163C55.6198 10.1781 55.9322 9.83737 56.3477 9.56644C56.7556 9.2974 57.1912 9.16544 57.6765 9.16544H57.7216C58.1616 9.16544 58.5781 9.25225 58.9712 9.45349C59.3717 9.66808 59.6989 9.96124 59.9526 10.3469C60.199 10.7326 60.3456 11.1487 60.3927 11.602C60.4001 11.6963 60.4039 11.7928 60.4039 11.885C60.4039 12.5001 60.169 13.0699 59.6989 13.5871Z" fill="#171D1A"/>
<path d="M0 3.7207H2.40492V9.06673H7.47706V3.7207H9.88508V16.8436H7.47706V11.3853H2.40492V16.8436H0V3.7207ZM17.5039 12.5692C17.5039 13.6678 16.6094 14.5617 15.5117 14.5617C14.4136 14.5617 13.5197 13.6678 13.5197 12.5692V6.9194H11.239V12.5692C11.239 14.9263 13.1558 16.8436 15.5117 16.8436C17.867 16.8436 19.7838 14.9263 19.7838 12.5692V6.9194H17.5039V12.5692ZM26.1506 6.98558C25.0193 6.98558 24.2296 7.31406 23.467 8.06309V3.7207H21.1789V11.7683C21.1789 14.7806 23.3556 16.8436 25.8011 16.8436C28.5197 16.8436 30.9018 14.7438 30.9018 11.9147C30.9018 9.12146 28.7052 6.98558 26.1506 6.98558ZM26.2075 14.7256C24.6571 14.7256 23.4714 13.43 23.4714 11.9147C23.4714 10.3991 24.6571 9.10313 26.2075 9.10313C27.5212 9.10313 28.7075 10.3991 28.7075 11.9147C28.7075 13.43 27.5212 14.7256 26.2075 14.7256ZM34.7448 7.56235C34.7448 6.41151 35.5111 6.04663 36.3501 6.04663C37.0256 6.04663 37.9194 6.55776 38.5028 7.1786L39.9985 5.4262C39.251 4.42228 37.7369 3.72839 36.4962 3.72839C34.0146 3.72839 32.2265 5.17064 32.2265 7.56235C32.2265 11.9983 37.6821 10.5921 37.6821 13.0755C37.6821 13.8414 36.9343 14.5175 36.0772 14.5175C34.7266 14.5175 34.2885 13.8603 33.6684 13.1664L32.0078 14.8821C33.0666 16.1784 34.3798 16.8359 35.9491 16.8359C38.3026 16.8359 40.2002 15.3754 40.2002 13.0932C40.2002 8.16445 34.7448 9.69809 34.7448 7.56235ZM46.2238 6.85699C43.7786 6.85699 41.6016 8.91873 41.6016 11.9317V20.0001H43.8896V15.6371C44.6523 16.3855 45.4416 16.7146 46.5734 16.7146C49.1278 16.7146 51.3246 14.579 51.3246 11.7857C51.3246 8.95621 48.9419 6.85699 46.2238 6.85699ZM46.6303 14.5973C45.08 14.5973 43.8943 13.2999 43.8943 11.7857C43.8943 10.2701 45.08 8.97413 46.6303 8.97413C47.9438 8.97413 49.1302 10.2701 49.1302 11.7857C49.1302 13.2999 47.9438 14.5973 46.6303 14.5973ZM68.1667 14.7256C66.8172 14.7256 66.434 14.1417 66.434 13.2468V9.28563H68.5318V7.2778H66.434V4.63053L64.1176 5.67084V13.7398C64.1176 15.8028 65.5402 16.8436 67.4916 16.8436C67.7835 16.8436 68.1853 16.8247 68.4045 16.7706L68.9702 14.6898C68.7148 14.7074 68.423 14.7256 68.1667 14.7256Z" fill="#171D1A"/>
</svg>
