<svg width="21" height="17" viewBox="0 0 21 17" fill="none" xmlns="http://www.w3.org/2000/svg">
<path id="campaign" d="M16.3335 9.5V7.5H20.3335V9.5H16.3335ZM17.5335 16.5L14.3335 14.1L15.5335 12.5L18.7335 14.9L17.5335 16.5ZM15.5335 4.5L14.3335 2.9L17.5335 0.5L18.7335 2.1L15.5335 4.5ZM3.3335 15.5V11.5H2.3335C1.7835 11.5 1.31266 11.3042 0.920996 10.9125C0.529329 10.5208 0.333496 10.05 0.333496 9.5V7.5C0.333496 6.95 0.529329 6.47917 0.920996 6.0875C1.31266 5.69583 1.7835 5.5 2.3335 5.5H6.3335L11.3335 2.5V14.5L6.3335 11.5H5.3335V15.5H3.3335ZM12.3335 11.85V5.15C12.7835 5.55 13.146 6.0375 13.421 6.6125C13.696 7.1875 13.8335 7.81667 13.8335 8.5C13.8335 9.18333 13.696 9.8125 13.421 10.3875C13.146 10.9625 12.7835 11.45 12.3335 11.85Z" fill="#7F3FF7"/>
</svg>
