<svg width="57" height="20" viewBox="0 0 57 20" fill="none" xmlns="http://www.w3.org/2000/svg">
<path fill-rule="evenodd" clip-rule="evenodd" d="M0 0V20H56.2349V0H0ZM50.2967 15.4324C43.3135 18.324 35.7212 19.1851 28.2162 19.1851C20.7365 19.1851 13.0369 18.3803 6.09154 15.4324C4.02386 14.5586 0.761719 12.5913 0.761719 10.0018C0.761719 7.40584 4.02994 5.44472 6.09154 4.57119C13.0372 1.62326 20.7304 0.818848 28.2162 0.818848C35.7209 0.818848 43.3135 1.6799 50.2967 4.57119C52.5278 5.49527 55.5132 7.24873 55.5132 10.0018C55.5132 12.7485 52.5339 14.5083 50.2967 15.4324Z" fill="#171D1A"/>
<path fill-rule="evenodd" clip-rule="evenodd" d="M36.13 10.9622C36.1301 10.9623 36.1302 10.9624 36.1303 10.9624H36.13V10.9622ZM35.6522 10.7989C35.8284 10.7989 35.9851 10.8679 36.13 10.9622V8.5991C35.985 8.69926 35.8282 8.76229 35.6519 8.76229H33.0435V8.26569H36.4883C36.6579 8.26569 36.8153 8.33513 36.9597 8.4292V6.07227H28.2419C28.3927 6.19802 28.5309 6.35544 28.5309 6.56247V13.1933C28.5309 13.3946 28.3927 13.5517 28.2419 13.6774H36.96V11.0693C36.8153 11.157 36.6579 11.2264 36.4886 11.2264H33.0438V10.7989H35.6522ZM42.5285 12.1566H44.4576L44.8726 13.2317C44.8915 13.2819 44.8982 13.3322 44.8982 13.3888C44.8982 13.4893 44.8726 13.5837 44.8352 13.6777H50.3851C50.2722 13.5769 50.1964 13.4768 50.1458 13.3382L47.531 6.9458C47.4683 6.79509 47.4183 6.63158 47.4183 6.462C47.4183 6.32378 47.4746 6.19805 47.5309 6.07231L47.531 6.07227H40.3472C40.4042 6.19162 40.4541 6.31737 40.4541 6.4556C40.4541 6.6191 40.4042 6.78869 40.3472 6.9458L37.9775 13.3382C37.9273 13.4707 37.8578 13.5773 37.7573 13.6777H42.2015C42.1573 13.5961 42.126 13.5142 42.126 13.4198C42.1257 13.3772 42.132 13.3348 42.1448 13.2941L42.5285 12.1566ZM20.1085 13.1869V10.8866L21.4601 13.1872C21.5103 13.2691 21.5606 13.3699 21.5606 13.4704C21.5606 13.5367 21.5166 13.5982 21.4761 13.6548C21.4707 13.6624 21.4653 13.67 21.4601 13.6774H27.5063C27.2801 13.5581 27.098 13.401 26.9659 13.1872L24.4518 9.21505L26.2747 6.56887C26.4145 6.35946 26.6048 6.18866 26.828 6.07227H21.6361C21.6386 6.07766 21.6411 6.08308 21.6436 6.08852C21.6794 6.16549 21.7177 6.24767 21.7177 6.32985C21.7177 6.41816 21.6802 6.49975 21.6361 6.56887L20.1088 8.85668V6.56887C20.1088 6.35512 20.2407 6.20442 20.3917 6.07227H15.1307C15.2753 6.21049 15.4135 6.35544 15.4135 6.56887V13.1869C15.4135 13.3942 15.2753 13.5453 15.1307 13.6771H20.3914C20.2407 13.5453 20.1085 13.3942 20.1085 13.1869ZM13.2575 6.07227H7.87109C8.01572 6.20442 8.14755 6.34873 8.14755 6.56247V13.1872C8.14755 13.3946 8.01572 13.5456 7.87109 13.6774H13.2575C13.1068 13.5456 12.9747 13.3946 12.9747 13.1872V6.56247C12.9747 6.34873 13.1068 6.20442 13.2575 6.07227ZM43.8876 10.6235H43.0273L43.442 9.41162L43.8876 10.6235Z" fill="#171D1A"/>
</svg>
