<svg width="81" height="24" viewBox="0 0 81 24" fill="none" xmlns="http://www.w3.org/2000/svg">
<path d="M12.9688 8.55605e-08C10.5953 1.0248e-07 8.27518 0.703824 6.30176 2.02246C4.32834 3.3411 2.79027 5.21533 1.88206 7.40813C0.973854 9.60093 0.736298 12.0138 1.19944 14.3416C1.66258 16.6694 2.80561 18.8076 4.48398 20.4858C6.16235 22.164 8.30068 23.3067 10.6285 23.7696C12.9564 24.2325 15.3693 23.9946 17.5619 23.0861C19.7546 22.1777 21.6287 20.6394 22.9471 18.6658C24.2655 16.6922 24.969 14.372 24.9688 11.9986C24.9688 10.4228 24.6584 8.86241 24.0553 7.40658C23.4522 5.95076 22.5683 4.62798 21.4539 3.51379C20.3396 2.3996 19.0167 1.51583 17.5608 0.912925C16.1049 0.310025 14.5445 -0.000188091 12.9688 8.55605e-08ZM18.4723 17.3072C18.421 17.3911 18.3538 17.464 18.2743 17.5219C18.1949 17.5797 18.1048 17.6213 18.0093 17.6444C17.9137 17.6674 17.8146 17.6713 17.7175 17.656C17.6204 17.6407 17.5273 17.6064 17.4435 17.5551C14.6265 15.8357 11.0788 15.4445 6.90213 16.3988C6.71229 16.434 6.5162 16.3944 6.35487 16.2884C6.19354 16.1823 6.07947 16.018 6.03653 15.8298C5.99359 15.6415 6.02511 15.444 6.12448 15.2784C6.22385 15.1129 6.38339 14.9922 6.56971 14.9416C11.1405 13.8956 15.0607 14.3456 18.2244 16.2784C18.3935 16.3822 18.5145 16.5488 18.561 16.7416C18.6074 16.9344 18.5755 17.1378 18.4723 17.3072ZM19.9409 14.0418C19.8767 14.1469 19.7923 14.2382 19.6926 14.3106C19.5929 14.383 19.48 14.435 19.3601 14.4636C19.2403 14.4923 19.116 14.497 18.9944 14.4774C18.8728 14.4579 18.7562 14.4145 18.6514 14.3498C15.4289 12.3654 10.5114 11.7908 6.70153 12.95C6.46402 13.0222 6.20756 12.9971 5.98856 12.8802C5.76957 12.7633 5.60597 12.5642 5.53377 12.3267C5.46157 12.0892 5.48667 11.8327 5.60356 11.6137C5.72045 11.3947 5.91955 11.2311 6.15705 11.1589C10.5114 9.83642 15.929 10.4769 19.6329 12.7522C19.738 12.8165 19.8293 12.9009 19.9017 13.0006C19.9741 13.1002 20.0261 13.2132 20.0547 13.333C20.0834 13.4528 20.088 13.5771 20.0685 13.6988C20.049 13.8204 20.0056 13.937 19.9409 14.0418ZM20.067 10.6402C16.1984 8.3477 9.81938 8.13278 6.12696 9.25325C5.84195 9.33971 5.53428 9.3094 5.27161 9.169C5.00895 9.0286 4.81282 8.7896 4.72637 8.5046C4.63991 8.21959 4.67022 7.91191 4.81062 7.64925C4.95102 7.38658 5.19001 7.19045 5.47502 7.104C9.71335 5.81445 16.76 6.06519 21.2133 8.70877C21.34 8.78404 21.4507 8.88353 21.539 9.00156C21.6272 9.11959 21.6914 9.25386 21.7278 9.39669C21.7642 9.53952 21.7721 9.68812 21.751 9.834C21.73 9.97989 21.6804 10.1202 21.6052 10.2469C21.5299 10.3737 21.4304 10.4843 21.3124 10.5726C21.1944 10.6609 21.0601 10.725 20.9173 10.7614C20.6288 10.8349 20.323 10.7908 20.067 10.6388V10.6402Z" fill="#171D1A"/>
<path d="M33.6256 11.0753C31.5538 10.581 31.1898 10.2342 31.1898 9.49919C31.1898 8.80999 31.8389 8.35292 32.8018 8.35292C33.736 8.35292 34.6644 8.7054 35.6345 9.42898C35.6489 9.43962 35.6654 9.44725 35.6829 9.45144C35.7003 9.45562 35.7185 9.45627 35.7362 9.45334C35.7542 9.45096 35.7715 9.4449 35.787 9.43553C35.8025 9.42616 35.816 9.41369 35.8265 9.39889L36.8381 7.96605C36.8565 7.93724 36.8641 7.90276 36.8594 7.86886C36.8546 7.83496 36.8379 7.80387 36.8123 7.78122C35.6908 6.86541 34.2809 6.377 32.8333 6.40283C30.5952 6.40283 29.0334 7.7454 29.0334 9.6654C29.0334 11.7258 30.3817 12.4551 32.7101 13.0182C34.6931 13.4739 35.0269 13.8564 35.0269 14.5413C35.0269 15.2979 34.3507 15.7693 33.2617 15.7693C32.0524 15.7693 31.0666 15.3623 29.9662 14.4066C29.9378 14.3839 29.9022 14.3722 29.8659 14.3737C29.8298 14.3775 29.7965 14.395 29.7727 14.4224L28.6336 15.7807C28.6109 15.8075 28.5995 15.8421 28.6019 15.8772C28.6043 15.9123 28.6203 15.945 28.6465 15.9684C29.8967 17.1019 31.5255 17.727 33.213 17.7208C35.6244 17.7208 37.1819 16.4026 37.1819 14.3651C37.1791 12.6414 36.1489 11.6886 33.6256 11.0753Z" fill="#171D1A"/>
<path d="M42.6255 9.03369C41.581 9.03369 40.7227 9.44492 40.0163 10.2889V9.33889C40.0164 9.30233 40.0025 9.26713 39.9774 9.24049C39.9524 9.21385 39.9181 9.1978 39.8816 9.1956H38.0261C37.9881 9.1956 37.9516 9.2107 37.9248 9.23757C37.8979 9.26444 37.8828 9.30088 37.8828 9.33889V19.8846C37.8847 19.9213 37.9006 19.9559 37.9272 19.9813C37.9539 20.0066 37.9893 20.0207 38.0261 20.0207H39.8816C39.8994 20.0207 39.9171 20.0171 39.9335 20.0103C39.9499 20.0034 39.9648 19.9934 39.9774 19.9807C39.9899 19.9681 39.9998 19.953 40.0065 19.9365C40.0131 19.92 40.0165 19.9024 40.0163 19.8846V16.5561C40.3361 16.9344 40.7363 17.2367 41.1876 17.441C41.639 17.6452 42.1302 17.7462 42.6255 17.7367C44.567 17.7367 46.5314 16.2423 46.5314 13.3852C46.5314 10.5281 44.567 9.03369 42.6255 9.03369ZM44.375 13.3852C44.375 14.841 43.4795 15.8554 42.1956 15.8554C40.9118 15.8554 39.9705 14.7937 39.9705 13.3852C39.9705 11.9767 40.9276 10.9164 42.1956 10.9164C43.4637 10.9164 44.375 11.9538 44.375 13.3852Z" fill="#171D1A"/>
<path d="M51.5527 9.03369C49.0524 9.03369 47.0938 10.9594 47.0938 13.4167C47.0938 15.8526 49.0395 17.7539 51.5226 17.7539C54.0315 17.7539 55.996 15.8339 55.996 13.3852C55.996 10.9365 54.0444 9.03369 51.5527 9.03369ZM51.5527 15.8712C50.2231 15.8712 49.2201 14.8023 49.2201 13.3852C49.2201 11.9681 50.1887 10.9308 51.5226 10.9308C52.8566 10.9308 53.8696 11.9997 53.8696 13.4167C53.8696 14.8338 52.8953 15.8712 51.5527 15.8712Z" fill="#171D1A"/>
<path d="M61.3581 9.20215H59.3163V7.11594C59.3175 7.09754 59.3149 7.0791 59.3086 7.06175C59.3024 7.04441 59.2927 7.02853 59.28 7.01509C59.2674 7.00166 59.2521 6.99097 59.2352 6.98367C59.2183 6.97637 59.2 6.97262 59.1816 6.97266H57.3261C57.2893 6.9745 57.2547 6.9904 57.2294 7.01707C57.204 7.04375 57.1899 7.07915 57.19 7.11594V9.20215H56.2987C56.2623 9.20434 56.228 9.2204 56.2029 9.24704C56.1779 9.27367 56.164 9.30887 56.1641 9.34543V10.933C56.164 10.9696 56.1779 11.0048 56.2029 11.0314C56.228 11.058 56.2623 11.0741 56.2987 11.0763H57.19V15.2014C57.19 16.8678 58.021 17.7132 59.6573 17.7132C60.2646 17.7277 60.8648 17.5793 61.3953 17.2833C61.4156 17.2707 61.4323 17.2532 61.4441 17.2324C61.4559 17.2117 61.4623 17.1883 61.4627 17.1644V15.6384C61.4626 15.6153 61.4567 15.5926 61.4454 15.5724C61.4342 15.5522 61.418 15.5353 61.3983 15.5231C61.3787 15.5109 61.3563 15.5039 61.3332 15.5028C61.3101 15.5017 61.2871 15.5064 61.2664 15.5167C60.9299 15.6908 60.5563 15.7808 60.1774 15.7789C59.5828 15.7789 59.3177 15.5095 59.3177 14.9034V11.0691H61.3595C61.3963 11.0673 61.4309 11.0514 61.4562 11.0247C61.4816 10.998 61.4957 10.9626 61.4956 10.9258V9.33827C61.4939 9.30249 61.4788 9.26867 61.4533 9.24348C61.4279 9.21828 61.3939 9.20354 61.3581 9.20215Z" fill="#171D1A"/>
<path d="M68.463 9.21379V8.95732C68.463 8.20365 68.7496 7.86693 69.4001 7.86693C69.7572 7.87136 70.111 7.93677 70.4461 8.06036C70.4665 8.06651 70.488 8.06803 70.5091 8.06481C70.5301 8.06158 70.5502 8.0537 70.5679 8.04173C70.5848 8.02869 70.5987 8.012 70.6083 7.99291C70.618 7.97382 70.6233 7.9528 70.6237 7.93141V6.36818C70.6228 6.3393 70.6131 6.3114 70.5959 6.28813C70.5788 6.26486 70.555 6.24731 70.5277 6.2378C70.0296 6.08634 69.511 6.01287 68.9903 6.02C67.2709 6.02 66.3711 6.9843 66.3711 8.80973V9.20233H65.4799C65.4443 9.20407 65.4107 9.21897 65.3855 9.24413C65.3604 9.26929 65.3455 9.30291 65.3438 9.33845V10.9361C65.3437 10.9729 65.3578 11.0083 65.3832 11.0349C65.4085 11.0616 65.4431 11.0775 65.4799 11.0793H66.3711V17.4426C66.3711 17.4806 66.3862 17.517 66.4131 17.5439C66.4399 17.5708 66.4764 17.5858 66.5144 17.5858H68.3685C68.4052 17.584 68.4398 17.5681 68.4652 17.5414C68.4905 17.5148 68.5046 17.4794 68.5046 17.4426V11.0722H70.2369L72.8905 17.434C72.5896 18.1017 72.293 18.2349 71.8875 18.2349C71.5278 18.2274 71.1758 18.1288 70.8645 17.9484C70.8307 17.9315 70.7918 17.9279 70.7556 17.9383C70.7203 17.9512 70.6915 17.9775 70.6753 18.0114L70.0392 19.3869C70.0243 19.4181 70.022 19.4537 70.0327 19.4865C70.0433 19.5193 70.0662 19.5467 70.0965 19.5632C70.7003 19.9051 71.3842 20.0802 72.0781 20.0704C73.4479 20.0704 74.2044 19.4313 74.8721 17.7148L78.0903 9.40436C78.0987 9.38384 78.1018 9.36152 78.0993 9.33948C78.0968 9.31744 78.0887 9.29639 78.0759 9.27827C78.0635 9.26009 78.0468 9.24523 78.0274 9.23499C78.0079 9.22475 77.9862 9.21944 77.9642 9.21953H76.037C76.0089 9.22046 75.9817 9.22965 75.9587 9.24596C75.9358 9.26227 75.9182 9.28497 75.908 9.31123L73.9293 14.9609L71.7586 9.3012C71.7489 9.27553 71.7317 9.25341 71.7092 9.23779C71.6866 9.22217 71.6599 9.2138 71.6325 9.21379H68.463Z" fill="#171D1A"/>
<path d="M64.3418 9.20215H62.4877C62.4125 9.20215 62.3516 9.26309 62.3516 9.33827V17.4309C62.3516 17.5061 62.4125 17.567 62.4877 17.567H64.3418C64.4169 17.567 64.4779 17.5061 64.4779 17.4309V9.33827C64.4779 9.26309 64.4169 9.20215 64.3418 9.20215Z" fill="#171D1A"/>
<path d="M63.4187 5.51904C63.1553 5.51876 62.8978 5.5966 62.6787 5.74272C62.4595 5.88884 62.2887 6.09666 62.1877 6.33991C62.0867 6.58315 62.0601 6.85089 62.1113 7.10923C62.1626 7.36758 62.2892 7.60494 62.4754 7.79127C62.6615 7.97761 62.8987 8.10455 63.157 8.15603C63.4153 8.20752 63.6831 8.18124 63.9264 8.08052C64.1698 7.97979 64.3778 7.80915 64.5241 7.59018C64.6705 7.37122 64.7486 7.11376 64.7486 6.85038C64.7482 6.49765 64.608 6.15946 64.3588 5.90991C64.1095 5.66036 63.7714 5.5198 63.4187 5.51904Z" fill="#171D1A"/>
<path d="M79.682 11.8057C79.4232 11.8052 79.1703 11.7279 78.9554 11.5838C78.7404 11.4396 78.5729 11.235 78.4742 10.9958C78.3754 10.7566 78.3497 10.4935 78.4003 10.2396C78.4509 9.98582 78.5756 9.75269 78.7587 9.56968C78.9417 9.38667 79.1748 9.26198 79.4286 9.21134C79.6824 9.16071 79.9456 9.18641 80.1848 9.28519C80.424 9.38398 80.6286 9.55142 80.7727 9.76638C80.9169 9.98134 80.9941 10.2342 80.9947 10.493C80.9947 10.8412 80.8564 11.1751 80.6102 11.4212C80.364 11.6674 80.0301 11.8057 79.682 11.8057ZM79.682 9.31788C79.4481 9.31589 79.2189 9.38348 79.0236 9.51205C78.8282 9.64062 78.6755 9.82438 78.5848 10.04C78.4941 10.2555 78.4696 10.4932 78.5143 10.7228C78.559 10.9523 78.671 11.1634 78.8359 11.3292C79.0009 11.495 79.2114 11.608 79.4408 11.6538C79.6701 11.6997 79.9079 11.6763 80.1239 11.5867C80.34 11.497 80.5245 11.3452 80.654 11.1505C80.7835 10.9557 80.8522 10.7269 80.8514 10.493C80.8531 10.339 80.8243 10.1861 80.7666 10.0433C80.7089 9.90046 80.6235 9.77047 80.5153 9.66081C80.4071 9.55116 80.2783 9.46402 80.1362 9.40442C79.9942 9.34482 79.8418 9.31395 79.6877 9.31358L79.682 9.31788ZM79.9686 10.6277L80.3383 11.1451H80.0274L79.6949 10.6707H79.4083V11.1451H79.1489V9.7736H79.7594C80.0775 9.7736 80.2867 9.93697 80.2867 10.2107C80.2915 10.3053 80.2633 10.3987 80.2068 10.4747C80.1503 10.5508 80.0692 10.6049 79.9772 10.6277H79.9686ZM79.7493 10.0086H79.4083V10.4386H79.7493C79.9184 10.4386 80.0202 10.3554 80.0202 10.2207C80.0202 10.086 79.9299 10.0086 79.7579 10.0086H79.7493Z" fill="#171D1A"/>
</svg>
