<svg width="95" height="23" viewBox="0 0 95 23" fill="none" xmlns="http://www.w3.org/2000/svg">
<g clip-path="url(#clip0_1815_1839)">
<path d="M47.5162 5.62498C43.8622 5.62498 41.2275 8.0619 41.2275 11.7173C41.2275 15.3727 44.1931 17.8096 47.8472 17.8096C50.0549 17.8096 52.0011 16.9161 53.2059 15.4099L50.6738 13.9139C50.0053 14.6619 48.9891 15.0985 47.8472 15.0985C46.2618 15.0985 44.9147 14.2524 44.4149 12.8985H53.6891C53.7619 12.5194 53.805 12.1268 53.805 11.7139C53.805 8.0619 51.1703 5.62498 47.5162 5.62498ZM44.3851 10.5327C44.7988 9.18221 45.9308 8.33267 47.5129 8.33267C49.0984 8.33267 50.2303 9.18221 50.6407 10.5327H44.3851ZM83.1568 5.62498C79.5027 5.62498 76.8681 8.0619 76.8681 11.7173C76.8681 15.3727 79.8337 17.8096 83.4878 17.8096C85.6955 17.8096 87.6417 16.9161 88.8464 15.4099L86.3144 13.9139C85.6458 14.6619 84.6297 15.0985 83.4878 15.0985C81.9024 15.0985 80.5553 14.2524 80.0555 12.8985H89.3297C89.4025 12.5194 89.4455 12.1268 89.4455 11.7139C89.4455 8.0619 86.8109 5.62498 83.1568 5.62498ZM80.029 10.5327C80.4427 9.18221 81.5747 8.33267 83.1568 8.33267C84.7422 8.33267 85.8742 9.18221 86.2846 10.5327H80.029ZM67.1106 11.7173C67.1106 13.7481 68.4081 15.1019 70.4205 15.1019C71.7841 15.1019 72.8069 14.469 73.3331 13.4367L75.8751 14.9361C74.8226 16.7299 72.8499 17.8096 70.4205 17.8096C66.7631 17.8096 64.1317 15.3727 64.1317 11.7173C64.1317 8.0619 66.7664 5.62498 70.4205 5.62498C72.8499 5.62498 74.8193 6.70467 75.8751 8.49852L73.3331 9.9979C72.8069 8.9656 71.7841 8.33267 70.4205 8.33267C68.4114 8.33267 67.1106 9.68652 67.1106 11.7173ZM94.4103 1.9019V17.4711H91.4314V1.9019H94.4103ZM13.0639 0.209595L25.2938 21.8711H0.833984L13.0639 0.209595ZM43.6404 1.9019L34.4688 18.1481L25.2972 1.9019H28.7361L34.4688 12.0557L40.2015 1.9019H43.6404ZM63.1388 5.96344V9.24313C62.8078 9.14498 62.4569 9.07729 62.0796 9.07729C60.1566 9.07729 58.7698 10.4311 58.7698 12.4619V17.4711H55.7909V5.96344H58.7698V9.07729C58.7698 7.3579 60.7259 5.96344 63.1388 5.96344Z" fill="#171D1A"/>
</g>
<defs>
<clipPath id="clip0_1815_1839">
<rect width="94" height="22" fill="white" transform="translate(0.62207 0.125)"/>
</clipPath>
</defs>
</svg>
